<?xml version="1.0" encoding="UTF-8" standalone="no"?>
<!-- Created with Inkscape (http://www.inkscape.org/) -->

<svg
   xmlns:dc="http://purl.org/dc/elements/1.1/"
   xmlns:cc="http://creativecommons.org/ns#"
   xmlns:rdf="http://www.w3.org/1999/02/22-rdf-syntax-ns#"
   xmlns:svg="http://www.w3.org/2000/svg"
   xmlns="http://www.w3.org/2000/svg"
   xmlns:sodipodi="http://sodipodi.sourceforge.net/DTD/sodipodi-0.dtd"
   xmlns:inkscape="http://www.inkscape.org/namespaces/inkscape"
   width="1204.6376"
   height="197.77159"
   viewBox="0 0 318.72703 52.327066"
   version="1.1"
   id="svg4680"
   inkscape:version="0.92.2 (5c3e80d, 2017-08-06)"
   sodipodi:docname="glitch_complete.svg">
  <defs
     id="defs4674" />
  <sodipodi:namedview
     id="base"
     pagecolor="#ffffff"
     bordercolor="#666666"
     borderopacity="1.0"
     inkscape:pageopacity="0.0"
     inkscape:pageshadow="2"
     inkscape:zoom="0.70710678"
     inkscape:cx="629.12272"
     inkscape:cy="-5.0079114"
     inkscape:document-units="mm"
     inkscape:current-layer="g1216"
     showgrid="false"
     inkscape:pagecheckerboard="true"
     inkscape:snap-global="true"
     inkscape:window-width="1920"
     inkscape:window-height="1001"
     inkscape:window-x="-9"
     inkscape:window-y="-9"
     inkscape:window-maximized="1"
     showguides="true"
     inkscape:guide-bbox="true"
     fit-margin-top="10"
     units="px"
     fit-margin-left="10"
     fit-margin-right="10"
     fit-margin-bottom="10">
    <sodipodi:guide
       position="-20.968958,17.471919"
       orientation="1,0"
       id="guide1145"
       inkscape:locked="false" />
  </sodipodi:namedview>
  <metadata
     id="metadata4677">
    <rdf:RDF>
      <cc:Work
         rdf:about="">
        <dc:format>image/svg+xml</dc:format>
        <dc:type
           rdf:resource="http://purl.org/dc/dcmitype/StillImage" />
        <dc:title></dc:title>
      </cc:Work>
    </rdf:RDF>
  </metadata>
  <g
     inkscape:label="Layer 1"
     inkscape:groupmode="layer"
     id="layer1"
     transform="translate(9.4581259,-165.83653)"
     style="display:none"
     sodipodi:insensitive="true">
    <text
       xml:space="preserve"
       style="font-style:normal;font-variant:normal;font-weight:normal;font-stretch:normal;font-size:73.81501007px;line-height:0;font-family:monospace;-inkscape-font-specification:monospace;letter-spacing:6.57224941px;word-spacing:0px;fill:#000000;fill-opacity:1;stroke:none;stroke-width:1.8453753"
       x="-1.3418843"
       y="214.32832"
       id="text5227"><tspan
         sodipodi:role="line"
         id="tspan5225"
         x="-1.3418843"
         y="214.32832"
         style="letter-spacing:6.57224941px;stroke-width:1.8453753">GL1TCH</tspan></text>
  </g>
  <g
     style="display:none"
     transform="translate(9.4581259,-165.83653)"
     id="g841"
     inkscape:groupmode="layer"
     inkscape:label="pieces"
     sodipodi:insensitive="true">
    <path
       style="font-style:normal;font-variant:normal;font-weight:normal;font-stretch:normal;font-size:medium;line-height:0;font-family:monospace;-inkscape-font-specification:monospace;letter-spacing:6.57224941px;word-spacing:0px;fill:#000000;fill-opacity:1;stroke:none;stroke-width:6.97464657"
       d="m 12.365234,405.80859 v 6.50391 c 0,4.92577 0.358954,9.4101 0.914063,13.65234 h 11.652344 c -0.74415,-4.30246 -1.123047,-8.84967 -1.123047,-13.65234 v -6.50391 z m 226.996096,0 v 20.15625 h 11.57812 v -20.15625 z m 217.73242,0 v 20.15625 h 11.44141 v -20.15625 z m 191.98633,0 v 20.15625 h 11.57812 v -20.15625 z m 131.63867,0 v 6.77539 c 0,4.71088 0.53643,9.12168 1.34375,13.38086 h 11.9043 c -1.1553,-4.80571 -1.80469,-9.79358 -1.80469,-15.01562 v -5.14063 z m 209.96875,0 v 20.15625 h 11.4414 v -20.15625 z m 87.3184,0 v 20.15625 h 11.58 v -20.15625 z m -988.128947,4.73243 c -2.724472,0 -4.678768,0.54497 -5.859375,1.63476 -1.1806,1.08979 -1.769531,2.49711 -1.769531,4.22266 0,1.72547 0.588931,3.13286 1.769531,4.22265 1.180607,0.99897 3.134903,1.49805 5.859375,1.49805 h 39.367187 v 3.8457 h 11.58008 v -3.8457 c 4.54078,0 7.26567,-0.13566 8.17383,-0.4082 0.90815,-0.36322 1.72465,-1.044 2.45117,-2.04297 0.72652,-0.99897 1.08984,-2.08896 1.08984,-3.26953 0,-1.72555 -0.59088,-3.08697 -1.77148,-4.08594 -1.18061,-1.08979 -3.13296,-1.63477 -5.85742,-1.63477 z m 242.933597,6.13086 c -1.7255,0 -3.13287,0.58892 -4.22266,1.76953 -1.08979,1.18061 -1.63476,3.13295 -1.63477,5.85742 v 1.66601 h 11.57813 v -1.66601 c 0,-2.8153 -0.54497,-4.76763 -1.63477,-5.85742 -1.08977,-1.18061 -2.45125,-1.76953 -4.08593,-1.76953 z"
       transform="matrix(0.26458333,0,0,0.26458333,0,87)"
       id="path1138"
       inkscape:connector-curvature="0" />
    <path
       style="font-style:normal;font-variant:normal;font-weight:normal;font-stretch:normal;font-size:medium;line-height:0;font-family:monospace;-inkscape-font-specification:monospace;letter-spacing:6.57224941px;word-spacing:0px;fill:#000000;fill-opacity:1;stroke:none;stroke-width:6.97464657"
       d="m 13.279297,425.96484 c 0.847013,6.47304 2.258851,12.25017 4.398437,17.13282 0.02453,0.0546 0.05542,0.10565 0.08008,0.16015 h 12.832032 c -2.685173,-5.2276 -4.56861,-10.99324 -5.658203,-17.29297 z m 115.964843,0 v 17.29297 h 11.58008 v -17.29297 z m 110.11719,0 v 17.29297 h 11.57812 v -17.29297 z m 87.59179,0 v 17.29297 h 11.57813 v -17.29297 z m 130.14063,0 v 17.29297 h 11.44141 v -17.29297 z m 191.98633,0 v 17.29297 h 11.57812 v -17.29297 z m 132.98242,0 c 0.5467,2.88424 1.1458,5.73928 2.0625,8.41602 0.98346,2.83242 2.40504,5.80635 4.12109,8.87695 h 12.91211 c -3.32786,-5.42912 -5.72501,-11.19316 -7.1914,-17.29297 z m 208.625,0 v 17.29297 h 11.4414 v -17.29297 z m 87.3184,0 v 17.29297 h 11.58 v -17.29297 z"
       transform="matrix(0.26458333,0,0,0.26458333,0,87)"
       id="path1136"
       inkscape:connector-curvature="0" />
    <path
       style="font-style:normal;font-variant:normal;font-weight:normal;font-stretch:normal;font-size:medium;line-height:0;font-family:monospace;-inkscape-font-specification:monospace;letter-spacing:6.57224941px;word-spacing:0px;fill:#000000;fill-opacity:1;stroke:none;stroke-width:6.97464657"
       d="m 17.757812,443.25781 c 1.691199,3.73851 3.706835,7.29931 6.001954,10.70703 H 37.90625 c -2.863598,-3.28346 -5.327928,-6.83578 -7.316406,-10.70703 z m 111.486328,0 v 10.70703 h 11.58008 v -10.70703 z m 110.11719,0 v 10.70703 h 11.57812 v -10.70703 z m 87.59179,0 v 10.70703 h 11.57813 v -10.70703 z m 130.14063,0 v 10.70703 h 11.44141 v -10.70703 z m 191.98633,0 v 10.70703 h 11.57812 v -10.70703 z m 139.16601,0 c 1.90409,3.40706 4.39677,7.00597 7.20313,10.70703 h 13.86523 c -3.16023,-3.40972 -5.87264,-6.98151 -8.15625,-10.70703 z m 202.44141,0 v 10.70703 h 11.4414 v -10.70703 z m 87.3184,0 v 10.70703 h 11.58 v -10.70703 z m -170.18949,2.42969 c -1.90715,0 -3.63388,0.95223 -5.17774,2.85938 -1.62333,1.92767 -3.26547,3.70789 -4.91601,5.41796 h 14.57226 c 0.58494,-1.13484 0.96875,-2.15639 0.96875,-2.96484 0,-1.54386 -0.49908,-2.81545 -1.49805,-3.81445 -0.99899,-0.99897 -2.31453,-1.49805 -3.94921,-1.49805 z"
       transform="matrix(0.26458333,0,0,0.26458333,0,87)"
       id="path1134"
       inkscape:connector-curvature="0" />
    <path
       style="font-style:normal;font-variant:normal;font-weight:normal;font-stretch:normal;font-size:medium;line-height:0;font-family:monospace;-inkscape-font-specification:monospace;letter-spacing:6.57224941px;word-spacing:0px;fill:#000000;fill-opacity:1;stroke:none;stroke-width:6.97464657"
       d="m 12.365234,393.96484 v 11.84375 h 11.44336 v -11.84375 z m 226.996096,0 v 11.84375 h 11.57812 v -11.84375 z m 217.73242,0 v 11.84375 h 11.44141 v -11.84375 z m 191.98633,0 v 11.84375 h 11.57812 v -11.84375 z m 131.63867,0 v 11.84375 h 11.44336 v -11.84375 z m 209.96875,0 v 11.84375 h 11.4414 v -1.66992 h 75.877 v 1.66992 h 11.58 v -11.84375 z"
       transform="matrix(0.26458333,0,0,0.26458333,0,87)"
       id="path1132"
       inkscape:connector-curvature="0" />
    <path
       style="font-style:normal;font-variant:normal;font-weight:normal;font-stretch:normal;font-size:medium;line-height:0;font-family:monospace;-inkscape-font-specification:monospace;letter-spacing:6.57224941px;word-spacing:0px;fill:#000000;fill-opacity:1;stroke:none;stroke-width:6.97464657"
       d="m 17.09375,365.25781 c -1.28695,3.5356 -2.255344,7.10855 -3.007812,10.70703 h 11.652343 c 0.983624,-3.75878 2.439465,-7.29928 4.181641,-10.70703 z m 222.26758,0 v 10.70703 h 11.57812 v -10.70703 z m 217.73242,0 v 10.70703 h 11.44141 v -10.70703 z m 133.68164,0 v 7.68555 c 0,1.17836 0.15086,2.12944 0.3418,3.02148 h 10.75976 c 0.19094,-0.89204 0.3418,-1.84312 0.3418,-3.02148 v -7.68555 z m 58.30469,0 v 10.70703 h 11.57812 v -10.70703 z m 58.43945,0 v 7.68555 c 0,1.17838 0.13952,2.12943 0.31445,3.02148 h 10.78711 c 0.19095,-0.89204 0.3418,-1.84312 0.3418,-3.02148 v -7.68555 z m 77.70899,0 c -1.30399,3.59227 -2.26903,7.1585 -2.9961,10.70703 h 11.70117 c 0.56101,-2.26523 1.20748,-4.47571 2.04297,-6.56445 0.57984,-1.41243 1.2451,-2.77154 1.89063,-4.14258 z m 112.83789,0 c 0.29272,0.85894 0.67737,1.56655 1.16601,2.09961 1.08979,1.08979 2.40731,1.63477 3.95117,1.63477 1.72551,0 3.08893,-0.58888 4.08789,-1.76953 0.44888,-0.48627 0.74577,-1.20118 1.00977,-1.96485 z m 92.62109,0 v 10.70703 h 11.4414 v -10.70703 z m 87.3184,0 v 10.70703 h 11.58 v -10.70703 z"
       transform="matrix(0.26458333,0,0,0.26458333,0,87)"
       id="path1086"
       inkscape:connector-curvature="0" />
    <path
       style="font-style:normal;font-variant:normal;font-weight:normal;font-stretch:normal;font-size:medium;line-height:0;font-family:monospace;-inkscape-font-specification:monospace;letter-spacing:6.57224941px;word-spacing:0px;fill:#000000;fill-opacity:1;stroke:none;stroke-width:6.97464657"
       d="m 14.085938,375.96484 c -0.505875,2.41921 -0.954463,4.84534 -1.21875,7.29297 h 11.472656 c 0.318604,-2.49935 0.780646,-4.93216 1.398437,-7.29297 z m 225.275392,0 v 7.29297 h 11.57812 v -7.29297 z m 217.73242,0 v 7.29297 h 11.44141 v -7.29297 z m 134.02344,0 c 0.26524,1.23917 0.65932,2.28619 1.29297,2.97266 1.08979,1.18057 2.45324,1.76953 4.08789,1.76953 1.7255,0 3.08697,-0.58896 4.08593,-1.76953 0.63365,-0.68647 1.02773,-1.73349 1.29297,-2.97266 z m 57.96289,0 v 7.29297 h 11.57812 v -7.29297 z m 58.7539,0 c 0.243,1.23915 0.60277,2.28619 1.1836,2.97266 1.08979,1.18057 2.49715,1.76953 4.22265,1.76953 1.72551,0 3.08894,-0.58896 4.08789,-1.76953 0.63365,-0.68647 1.02772,-1.73349 1.29297,-2.97266 z m 74.39844,0 c -0.50011,2.44086 -0.8861,4.87273 -1.11328,7.29297 h 11.51758 c 0.28659,-2.5246 0.71814,-4.95618 1.29687,-7.29297 z m 208.45508,0 v 7.29297 h 11.4414 v -7.29297 z m 87.3184,0 v 7.29297 h 11.58 v -7.29297 z"
       transform="matrix(0.26458333,0,0,0.26458333,0,87)"
       id="path1082"
       inkscape:connector-curvature="0" />
    <path
       style="font-style:normal;font-variant:normal;font-weight:normal;font-stretch:normal;font-size:medium;line-height:0;font-family:monospace;-inkscape-font-specification:monospace;letter-spacing:6.57224941px;word-spacing:0px;fill:#000000;fill-opacity:1;stroke:none;stroke-width:6.97464657"
       d="m 23.375,351.96484 c -0.566865,0.9728 -1.212184,1.84768 -1.746094,2.86133 -1.801178,3.44343 -3.259265,6.92642 -4.535156,10.43164 h 12.826172 c 0.42817,-0.83751 0.770148,-1.71493 1.24414,-2.53125 2.30949,-4.04873 4.692436,-7.53662 7.109376,-10.76172 z m 105.24805,0 c 0.38474,1.29002 0.79712,2.57122 0.89453,3.95118 0.0908,2.63365 0.63579,4.49419 1.63476,5.58398 1.08979,0.999 2.40536,1.49805 3.94922,1.49805 1.63469,0 2.9981,-0.54498 4.08789,-1.63477 1.08979,-1.18061 1.63477,-3.17693 1.63477,-5.99219 v -3.40625 z m 110.73828,0 v 13.29297 h 11.57812 v -13.29297 z m 217.73242,0 v 13.29297 h 11.44141 v -13.29297 z m 133.68164,0 v 13.29297 h 11.44336 v -13.29297 z m 58.30469,0 v 13.29297 h 11.57812 v -13.29297 z m 58.43945,0 v 13.29297 h 11.44336 v -13.29297 z m 83.89649,0 c -0.55427,0.97236 -1.18488,1.84819 -1.70704,2.86133 -1.79047,3.49958 -3.2249,6.97279 -4.48046,10.43164 h 12.63867 c 2.19621,-4.66458 4.74428,-9.10736 7.70117,-13.29297 z m 102.9375,0 c 1.80788,3.17913 2.89784,6.5264 3.10937,10.08008 0.0929,1.25265 0.29779,2.31583 0.60352,3.21289 h 10.21484 c 0.37695,-1.09039 0.625,-2.37359 0.625,-4.02929 v -9.26368 z m 96.33398,0 v 13.29297 h 11.4414 v -13.29297 z m 87.3184,0 v 13.29297 h 11.58 v -13.29297 z"
       transform="matrix(0.26458333,0,0,0.26458333,0,87)"
       id="path1070"
       inkscape:connector-curvature="0" />
    <path
       style="font-style:normal;font-variant:normal;font-weight:normal;font-stretch:normal;font-size:medium;line-height:0;font-family:monospace;-inkscape-font-specification:monospace;letter-spacing:6.57224941px;word-spacing:0px;fill:#000000;fill-opacity:1;stroke:none;stroke-width:6.97464657"
       d="m 12.867188,383.25781 c -0.289108,2.67749 -0.501954,5.36468 -0.501954,8.07617 v 2.63086 h 11.44336 v -2.49609 c 0,-2.81912 0.191926,-5.54904 0.53125,-8.21094 z m 226.494142,0 v 10.70703 h 11.57812 v -10.70703 z m 217.73242,0 v 10.70703 h 11.44141 v -10.70703 z m 191.98633,0 v 10.70703 h 11.57812 v -10.70703 z m 132.03906,0 c -0.18911,2.01463 -0.40039,4.03086 -0.40039,6.03125 v 4.67578 h 11.44336 v -3.04101 c 0,-2.65715 0.19348,-5.18957 0.47461,-7.66602 z m 209.56836,0 v 10.70703 h 98.8984 v -10.70703 h -11.58 v 9.4375 h -75.877 v -9.4375 z"
       transform="matrix(0.26458333,0,0,0.26458333,0,87)"
       id="path1050"
       inkscape:connector-curvature="0" />
    <path
       style="font-style:normal;font-variant:normal;font-weight:normal;font-stretch:normal;font-size:medium;line-height:0;font-family:monospace;-inkscape-font-specification:monospace;letter-spacing:6.57224941px;word-spacing:0px;fill:#000000;fill-opacity:1;stroke:none;stroke-width:6.97464657"
       d="M 40.474609,332.18555 C 33.662592,337.39964 27.99627,344.03429 23.375,351.96484 h 14.898438 c 5.281375,-7.04733 10.799525,-12.27739 16.59375,-15.39257 3.458376,-1.87635 7.124161,-3.27054 10.910156,-4.38672 z m 61.486331,0 c 4.28688,1.1956 8.45532,2.72828 12.43554,4.79492 7.831,4.0274 12.45909,9.05819 14.22657,14.98437 h 12.20117 v -19.77929 h -11.52344 c -0.005,0.55011 -0.0566,0.49863 -0.0566,1.11718 -0.50085,-0.3971 -1.03519,-0.73572 -1.54492,-1.11718 z m 105.0957,0 c 1.1977,0.68852 2.79733,1.11718 5.05859,1.11718 h 27.2461 v 18.66211 h 11.57812 v -18.66211 h 27.24414 c 2.26066,0 3.86048,-0.42903 5.0586,-1.11718 z m 203.61328,0 c 0.25369,0.88983 0.64602,1.73321 1.33399,2.47851 1.18061,1.08979 2.45223,1.63477 3.81445,1.63477 0.81736,0 2.13293,-0.2714 3.94922,-0.81641 l 10.50195,-3.29687 z m 46.42383,0 v 19.77929 h 11.44141 v -19.77929 z m 133.68164,0 v 19.77929 h 11.44336 v -18.66211 h 46.86133 v 18.66211 h 11.57812 v -18.66211 h 46.86133 v 18.66211 h 11.44336 v -19.77929 z m 217.36914,0 c -6.65843,5.21754 -12.20668,11.84658 -16.72851,19.77929 h 14.15234 c 1.48272,-2.09886 3.03685,-4.1524 4.71094,-6.13086 3.45097,-4.08672 8.0823,-7.53626 13.89453,-10.35156 2.73592,-1.36796 5.55543,-2.40814 8.41406,-3.29687 z m 58.11328,0 c 6.69729,1.99876 12.996,5.10284 18.8086,9.5625 4.17186,3.15314 7.21409,6.57144 9.28711,10.21679 h 14.55273 v -19.77929 h -11.44336 v 5.33984 c -2.05241,-1.94295 -4.18546,-3.68963 -6.35742,-5.33984 z m 112.16211,0 c 1.21062,0.68859 2.84684,1.11718 5.1836,1.11718 h 7.08398 v 18.66211 h 11.4414 v -18.66211 h 15.3945 c 2.2613,0 3.8609,-0.42866 5.0586,-1.11718 z m 79.26958,0 c 1.1976,0.68852 2.7973,1.11718 5.0585,1.11718 h 15.2579 v 18.66211 h 11.58 v -18.66211 h 7.0821 c 2.3367,0 3.973,-0.42859 5.1836,-1.11718 z"
       transform="matrix(0.26458333,0,0,0.26458333,0,87)"
       id="path1030"
       inkscape:connector-curvature="0" />
    <path
       style="font-style:normal;font-variant:normal;font-weight:normal;font-stretch:normal;font-size:medium;line-height:0;font-family:monospace;-inkscape-font-specification:monospace;letter-spacing:6.57224941px;word-spacing:0px;fill:#000000;fill-opacity:1;stroke:none;stroke-width:6.97464657"
       d="m 23.759766,453.96484 c 2.62705,3.90057 5.620931,7.60013 9.039062,11.06641 1.641132,1.66425 3.37769,3.22921 5.201172,4.70508 h 23.080078 c -7.620114,-2.78843 -14.25012,-6.83159 -19.835937,-12.19922 -1.186999,-1.14063 -2.27212,-2.35023 -3.337891,-3.57227 z m 105.484374,0 v 10.52149 c -4.76678,2.19161 -9.04665,3.85217 -13.08594,5.25 h 24.66602 v -15.77149 z m 110.11719,0 v 15.77149 h 11.57812 v -15.77149 z m 87.59179,0 v 15.77149 h 11.57813 v -15.77149 z m 130.14063,0 v 15.77149 h 11.44141 v -15.77149 z m 191.98633,0 v 15.77149 h 11.57812 v -15.77149 z m 146.36914,0 c 0.50321,0.66365 0.81152,1.26439 1.34375,1.9375 5.0033,6.16351 9.19013,10.5071 12.91992,13.83399 h 21.38086 c -7.31691,-3.13218 -14.12341,-7.86695 -20.40625,-14.24219 -0.48812,-0.49889 -0.90422,-1.02346 -1.37305,-1.5293 z m 102.27344,0 c -5.73654,5.94342 -11.63221,10.61116 -17.69727,13.92578 -1.27167,0.70316 -2.61501,1.2584 -3.94336,1.84571 h 21.5918 c 3.39274,-2.74919 6.66354,-5.75804 9.73242,-9.20117 2.39366,-2.61635 3.9623,-4.77305 4.88867,-6.57032 z m 92.96484,0 v 15.77149 h 11.4414 v -15.77149 z m 87.3184,0 v 15.77149 h 11.58 v -15.77149 z"
       transform="matrix(0.26458333,0,0,0.26458333,0,87)"
       id="path996"
       inkscape:connector-curvature="0" />
    <path
       style="font-style:normal;font-variant:normal;font-weight:normal;font-stretch:normal;font-size:medium;line-height:0;font-family:monospace;-inkscape-font-specification:monospace;letter-spacing:6.57224941px;word-spacing:0px;fill:#000000;fill-opacity:1;stroke:none;stroke-width:6.97464657"
       d="m 38,469.73633 c 5.34088,4.32274 11.459714,7.84274 18.365234,10.55078 9.354021,3.63265 20.161758,5.44922 32.421875,5.44922 8.627494,0 17.253371,-1.22569 25.880861,-3.67774 8.71831,-2.45204 17.43794,-6.08521 26.15625,-10.89843 v -1.42383 H 116.1582 c -2.65585,0.91908 -5.2775,1.80055 -7.61914,2.37695 -5.90302,1.45308 -12.305033,2.17969 -19.207029,2.17969 -10.614713,0 -20.014168,-1.54219 -28.251953,-4.55664 z m 201.36133,0 v 0.0625 h -27.2461 c -2.72447,0 -4.67681,0.54497 -5.85742,1.63476 -1.1806,0.99897 -1.76953,2.36044 -1.76953,4.08594 0,1.63468 0.58893,2.99615 1.76953,4.08594 1.18061,1.08979 3.13295,1.63476 5.85742,1.63476 h 126.41602 v -11.5039 h -11.57813 v 0.0625 h -76.01367 v -0.0625 z m 217.73242,0 v 0.0625 h -39.23242 c -2.72444,0 -4.67681,0.54497 -5.85742,1.63476 -1.18061,0.99897 -1.77149,2.36044 -1.77149,4.08594 0,1.63468 0.59088,2.99615 1.77149,4.08594 1.18061,1.08979 3.13298,1.63476 5.85742,1.63476 h 89.90625 c 2.72447,0 4.67876,-0.54497 5.85937,-1.63476 1.18061,-1.08979 1.76953,-2.45126 1.76953,-4.08594 0,-1.7255 -0.58892,-3.08697 -1.76953,-4.08594 -1.18061,-1.08979 -3.1349,-1.63476 -5.85937,-1.63476 h -39.23242 v -0.0625 z m 191.98633,0 v 0.0625 h -29.69727 c -2.72447,0 -4.67681,0.54497 -5.85742,1.63476 -1.18057,0.99897 -1.77148,2.36044 -1.77148,4.08594 0,1.63468 0.59091,2.99615 1.77148,4.08594 1.18061,1.08979 3.13295,1.63476 5.85742,1.63476 h 70.97266 c 2.72447,0 4.67681,-0.54497 5.85742,-1.63476 1.18061,-1.08979 1.77149,-2.45126 1.77149,-4.08594 0,-1.7255 -0.59088,-3.08697 -1.77149,-4.08594 -1.18061,-1.08979 -3.13295,-1.63476 -5.85742,-1.63476 H 660.6582 v -0.0625 z m 160.63281,0 c 0.9415,0.83979 2.02253,1.99145 2.88281,2.65039 4.26834,3.26937 9.67221,6.13002 16.21094,8.58203 8.53667,3.17858 16.93693,4.76758 25.20117,4.76758 9.53567,0 18.93406,-2.08808 28.19727,-6.26563 5.4992,-2.50934 10.62875,-5.81245 15.46875,-9.73437 h -21.5918 c -6.73505,2.97782 -14.15533,4.55664 -22.34765,4.55664 -8.03131,0 -15.5738,-1.53151 -22.64063,-4.55664 z m 180.97461,0 v 0.0625 h -12.94141 c -2.72447,0 -4.67677,0.54497 -5.85742,1.63476 -1.18057,0.99897 -1.77148,2.36044 -1.77148,4.08594 0,1.63468 0.59091,2.99615 1.77148,4.08594 1.18065,1.08979 3.13295,1.63476 5.85742,1.63476 h 39.77731 c 2.7245,0 4.6768,-0.54497 5.8575,-1.63476 1.1806,-1.08979 1.7695,-2.45126 1.7695,-4.08594 0,-1.7255 -0.5889,-3.08697 -1.7695,-4.08594 -1.1807,-1.08979 -3.133,-1.63476 -5.8575,-1.63476 h -15.3945 v -0.0625 z m 87.3184,0 v 0.0625 h -15.2579 c -2.8152,0 -4.8116,0.54497 -5.9921,1.63476 -1.0899,0.99897 -1.6348,2.36044 -1.6348,4.08594 0,1.63468 0.5889,2.99615 1.7695,4.08594 1.1806,1.08979 3.1331,1.63476 5.8574,1.63476 h 39.7774 c 2.7245,0 4.6788,-0.54497 5.8594,-1.63476 1.1806,-1.08979 1.7695,-2.45126 1.7695,-4.08594 0,-1.7255 -0.5889,-3.08697 -1.7695,-4.08594 -1.1806,-1.08979 -3.1349,-1.63476 -5.8594,-1.63476 h -12.9395 v -0.0625 z"
       transform="matrix(0.26458333,0,0,0.26458333,0,87)"
       id="path992"
       inkscape:connector-curvature="0" />
    <path
       style="font-style:normal;font-variant:normal;font-weight:normal;font-stretch:normal;font-size:medium;line-height:0;font-family:monospace;-inkscape-font-specification:monospace;letter-spacing:6.57224941px;word-spacing:0px;fill:#000000;fill-opacity:1;stroke:none;stroke-width:6.97464657"
       d="m 468.53516,307.96484 -50.77735,16 -1.53125,0.48243 c -2.27036,0.81736 -3.76955,1.5899 -4.49609,2.3164 -0.90818,1.18061 -1.36133,2.45226 -1.36133,3.81445 0,0.56927 0.15261,1.0877 0.30078,1.60743 h 19.59961 l 26.18945,-8.22071 0.63477,-0.19922 v 0.19922 8.22071 h 11.44141 v -8.22071 z m -386.015629,10.2168 c -9.919344,0 -19.239706,1.96932 -27.998047,5.7832 -2.467731,1.0746 -4.907577,2.23778 -7.283203,3.61524 -2.379605,1.37977 -4.604269,2.9526 -6.763672,4.60547 h 25.302735 c 5.559376,-1.63901 11.428475,-2.56055 17.695312,-2.56055 6.462947,0 12.60265,0.91906 18.488284,2.56055 h 25.73828 c -4.43617,-3.31985 -9.18629,-6.08566 -14.29492,-8.22071 -9.20543,-3.84722 -19.495811,-5.7832 -30.884769,-5.7832 z m 766.175779,0 c -9.50388,0 -18.476,1.96326 -26.94336,5.7832 -2.45562,1.10783 -4.88168,2.3228 -7.25,3.75196 -2.23583,1.34151 -4.32135,2.87328 -6.35742,4.46875 h 24.44336 c 5.3018,-1.6483 10.79234,-2.56055 16.51563,-2.56055 6.02464,0 11.71355,0.93679 17.15429,2.56055 h 24.84766 c -4.40841,-3.34943 -9.06974,-6.07724 -13.9707,-8.22071 -8.7109,-3.80976 -18.17231,-5.7832 -28.43946,-5.7832 z m -713.59375,3.67774 c -1.27142,-4e-5 -2.40532,0.36322 -3.40429,1.08984 -0.43816,0.27881 -0.58071,0.68426 -0.89649,1.01562 -0.40418,0.42413 -0.94255,0.79096 -1.14648,1.30078 -0.2346,0.78192 -0.32061,3.5124 -0.35352,6.91993 h 11.52344 v -2.69727 c 0,-2.53096 -0.52045,-4.32484 -1.46094,-5.52344 -0.0719,-0.0916 -0.0964,-0.25013 -0.17383,-0.33398 -1.08979,-1.18061 -2.4532,-1.77149 -4.08789,-1.77148 z m 77.01367,0 c -2.72447,0 -4.67681,0.54497 -5.85742,1.63476 -0.15706,0.13289 -0.21739,0.32498 -0.35351,0.4707 -0.8871,0.9497 -1.41602,2.11928 -1.41602,3.61524 0,1.7255 0.58893,3.13287 1.76953,4.22265 0.20073,0.16985 0.55349,0.24177 0.79883,0.38282 h 76.18555 c 0.24582,-0.14119 0.59979,-0.21275 0.80078,-0.38282 1.1806,-1.08978 1.76953,-2.49715 1.76953,-4.22265 0,-1.49596 -0.52891,-2.66554 -1.41602,-3.61524 -0.13612,-0.14572 -0.19645,-0.33781 -0.35351,-0.4707 -1.18061,-1.08979 -3.1349,-1.63476 -5.85938,-1.63476 z m 378.66016,0 v 2.10546 8.22071 h 128.1875 v -8.22071 -2.10546 z m 312.4082,0 c -1.72546,0 -3.13286,0.59087 -4.22265,1.77148 -0.071,0.084 -0.0942,0.24222 -0.16016,0.33398 -0.86189,1.19862 -1.33789,2.99272 -1.33789,5.52344 v 2.69727 h 11.44336 v -2.69727 c 0,-2.53096 -0.52045,-4.32484 -1.46094,-5.52344 -0.0719,-0.0916 -0.0964,-0.25013 -0.17383,-0.33398 -0.99896,-1.18061 -2.36238,-1.77148 -4.08789,-1.77148 z m 80.41993,0 c -2.8153,0 -4.81359,0.54497 -5.99414,1.63476 -0.15707,0.13289 -0.21734,0.32498 -0.35352,0.4707 -0.8875,0.9497 -1.41797,2.11928 -1.41797,3.61524 0,1.7255 0.59087,3.13287 1.77149,4.22265 0.20065,0.16981 0.56262,0.2418 0.81054,0.38282 h 44.16208 c 0.2454,-0.14105 0.5981,-0.21297 0.7989,-0.38282 1.1806,-1.08978 1.7695,-2.49715 1.7695,-4.22265 0,-1.49596 -0.5289,-2.66554 -1.416,-3.61524 -0.1361,-0.14572 -0.1965,-0.33781 -0.3535,-0.4707 -1.1807,-1.08979 -3.133,-1.63476 -5.8575,-1.63476 z m 79.14448,0 c -2.8152,0 -4.8116,0.54497 -5.9921,1.63476 -0.145,0.13285 -0.2006,0.32503 -0.3262,0.4707 -0.8193,0.94972 -1.3086,2.11921 -1.3086,3.61524 0,1.7255 0.5889,3.13287 1.7695,4.22265 0.2007,0.16985 0.5535,0.24177 0.7989,0.38282 h 44.1621 c 0.2479,-0.14102 0.6098,-0.21301 0.8105,-0.38282 1.1806,-1.08978 1.7715,-2.49715 1.7715,-4.22265 0,-1.49596 -0.5305,-2.66554 -1.418,-3.61524 -0.1362,-0.14572 -0.1964,-0.33781 -0.3535,-0.4707 -1.1806,-1.08979 -3.1788,-1.63476 -5.9941,-1.63476 z"
       transform="matrix(0.26458333,0,0,0.26458333,0,87)"
       id="path944"
       inkscape:connector-curvature="0" />
  </g>
  <g
     inkscape:label="pieces_moved"
     inkscape:groupmode="layer"
     id="g1179"
     transform="translate(9.4581259,-165.83653)"
     style="display:none"
     sodipodi:insensitive="true">
    <path
       id="path1155"
       d="m 1.154968,194.37019 v 1.72082 c 0,1.30328 0.094973,2.48976 0.2418458,3.61219 h 3.083016 c -0.1968897,-1.13836 -0.2971396,-2.34148 -0.2971396,-3.61219 v -1.72082 z m 60.059381,0 v 5.33301 h 3.063378 v -5.33301 z m 57.608351,0 v 5.33301 h 3.02721 v -5.33301 z m 50.79639,0 v 5.33301 h 3.06337 v -5.33301 z m 34.82939,0 v 1.79265 c 0,1.24642 0.14193,2.41345 0.35554,3.54036 h 3.14968 c -0.30568,-1.27151 -0.47749,-2.59122 -0.47749,-3.97289 v -1.36012 z m 55.55423,0 v 5.33301 h 3.02721 v -5.33301 z m 23.103,0 v 5.33301 h 3.06387 v -5.33301 z m -261.442435,1.25212 c -0.72085,0 -1.237924,0.14419 -1.550293,0.43253 -0.312367,0.28834 -0.468188,0.66069 -0.468188,1.11725 0,0.45653 0.155821,0.8289 0.468188,1.11724 0.312369,0.26431 0.829443,0.39636 1.550293,0.39636 h 10.415902 v 1.01751 h 3.063896 v -1.01751 c 1.201414,0 1.922375,-0.0359 2.162659,-0.10801 0.240281,-0.0961 0.456314,-0.27622 0.648539,-0.54053 0.192225,-0.26431 0.288353,-0.5527 0.288353,-0.86506 0,-0.45656 -0.156337,-0.81676 -0.468704,-1.08108 -0.31237,-0.28834 -0.828929,-0.43253 -1.549776,-0.43253 z m 64.27618,1.62212 c -0.456538,0 -0.828905,0.15582 -1.117245,0.46819 -0.28834,0.31237 -0.43253,0.82893 -0.432533,1.54978 v 0.4408 h 3.06338 v -0.4408 c 0,-0.74488 -0.14419,-1.26144 -0.432533,-1.54978 -0.288335,-0.31237 -0.64856,-0.46819 -1.081069,-0.46819 z"
       style="font-style:normal;font-variant:normal;font-weight:normal;font-stretch:normal;font-size:medium;line-height:0;font-family:monospace;-inkscape-font-specification:monospace;letter-spacing:6.57224941px;word-spacing:0px;fill:#000000;fill-opacity:1;stroke:none;stroke-width:1.84537518"
       inkscape:connector-curvature="0" />
    <path
       id="path1157"
       transform="matrix(0.26458333,0,0,0.26458333,0,87)"
       d="m 13.279297,425.96484 c 0.847013,6.47304 2.258851,12.25017 4.398437,17.13282 0.02453,0.0546 0.05542,0.10565 0.08008,0.16015 h 12.832032 c -2.685173,-5.2276 -4.56861,-10.99324 -5.658203,-17.29297 z m 115.964843,0 v 17.29297 h 11.58008 v -17.29297 z m 110.11719,0 v 17.29297 h 11.57812 v -17.29297 z m 87.59179,0 v 17.29297 h 11.57813 v -17.29297 z m 130.14063,0 v 17.29297 h 11.44141 v -17.29297 z m 191.98633,0 v 17.29297 h 11.57812 v -17.29297 z m 132.98242,0 c 0.5467,2.88424 1.1458,5.73928 2.0625,8.41602 0.98346,2.83242 2.40504,5.80635 4.12109,8.87695 h 12.91211 c -3.32786,-5.42912 -5.72501,-11.19316 -7.1914,-17.29297 z m 208.625,0 v 17.29297 h 11.4414 v -17.29297 z m 87.3184,0 v 17.29297 h 11.58 v -17.29297 z"
       style="font-style:normal;font-variant:normal;font-weight:normal;font-stretch:normal;font-size:medium;line-height:0;font-family:monospace;-inkscape-font-specification:monospace;letter-spacing:6.57224941px;word-spacing:0px;fill:#000000;fill-opacity:1;stroke:none;stroke-width:6.97464657"
       inkscape:connector-curvature="0" />
    <path
       id="path1159"
       d="m 3.6400877,204.27863 c 0.447463,0.98914 0.9807667,1.93127 1.5880169,2.8329 h 3.7429239 c -0.7576603,-0.86875 -1.4096809,-1.80863 -1.9357991,-2.8329 z m 29.4974233,0 v 2.8329 h 3.063896 v -2.8329 z m 29.135173,0 v 2.8329 h 3.063378 v -2.8329 z m 23.175328,0 v 2.8329 h 3.06338 v -2.8329 z m 34.433038,0 v 2.8329 h 3.02721 v -2.8329 z m 50.79638,0 v 2.8329 h 3.06338 v -2.8329 z m 36.82101,0 c 0.50379,0.90145 1.16331,1.85366 1.90583,2.8329 h 3.66851 c -0.83615,-0.90216 -1.55381,-1.84719 -2.15801,-2.8329 z m 53.56262,0 v 2.8329 h 3.0272 v -2.8329 z m 23.10299,0 v 2.8329 h 3.06388 v -2.8329 z m -45.0293,0.64285 c -0.5046,0 -0.96146,0.25195 -1.36994,0.75655 -0.42951,0.51003 -0.86399,0.98104 -1.3007,1.4335 h 3.85558 c 0.15477,-0.30026 0.25632,-0.57055 0.25632,-0.78445 0,-0.40848 -0.13205,-0.74492 -0.39636,-1.00924 -0.26432,-0.26431 -0.61239,-0.39636 -1.0449,-0.39636 z"
       style="font-style:normal;font-variant:normal;font-weight:normal;font-stretch:normal;font-size:medium;line-height:0;font-family:monospace;-inkscape-font-specification:monospace;letter-spacing:6.57224941px;word-spacing:0px;fill:#000000;fill-opacity:1;stroke:none;stroke-width:1.84537518"
       inkscape:connector-curvature="0" />
    <path
       id="path1161"
       transform="matrix(0.26458333,0,0,0.26458333,0,87)"
       d="m 12.365234,393.96484 v 11.84375 h 11.44336 v -11.84375 z m 226.996096,0 v 11.84375 h 11.57812 v -11.84375 z m 217.73242,0 v 11.84375 h 11.44141 v -11.84375 z m 191.98633,0 v 11.84375 h 11.57812 v -11.84375 z m 131.63867,0 v 11.84375 h 11.44336 v -11.84375 z m 209.96875,0 v 11.84375 h 11.4414 v -1.66992 h 75.877 v 1.66992 h 11.58 v -11.84375 z"
       style="font-style:normal;font-variant:normal;font-weight:normal;font-stretch:normal;font-size:medium;line-height:0;font-family:monospace;-inkscape-font-specification:monospace;letter-spacing:6.57224941px;word-spacing:0px;fill:#000000;fill-opacity:1;stroke:none;stroke-width:6.97464657"
       inkscape:connector-curvature="0" />
    <path
       id="path1163"
       transform="matrix(0.26458333,0,0,0.26458333,0,87)"
       d="m 17.09375,365.25781 c -1.28695,3.5356 -2.255344,7.10855 -3.007812,10.70703 h 11.652343 c 0.983624,-3.75878 2.439465,-7.29928 4.181641,-10.70703 z m 222.26758,0 v 10.70703 h 11.57812 v -10.70703 z m 217.73242,0 v 10.70703 h 11.44141 v -10.70703 z m 133.68164,0 v 7.68555 c 0,1.17836 0.15086,2.12944 0.3418,3.02148 h 10.75976 c 0.19094,-0.89204 0.3418,-1.84312 0.3418,-3.02148 v -7.68555 z m 58.30469,0 v 10.70703 h 11.57812 v -10.70703 z m 58.43945,0 v 7.68555 c 0,1.17838 0.13952,2.12943 0.31445,3.02148 h 10.78711 c 0.19095,-0.89204 0.3418,-1.84312 0.3418,-3.02148 v -7.68555 z m 77.70899,0 c -1.30399,3.59227 -2.26903,7.1585 -2.9961,10.70703 h 11.70117 c 0.56101,-2.26523 1.20748,-4.47571 2.04297,-6.56445 0.57984,-1.41243 1.2451,-2.77154 1.89063,-4.14258 z m 112.83789,0 c 0.29272,0.85894 0.67737,1.56655 1.16601,2.09961 1.08979,1.08979 2.40731,1.63477 3.95117,1.63477 1.72551,0 3.08893,-0.58888 4.08789,-1.76953 0.44888,-0.48627 0.74577,-1.20118 1.00977,-1.96485 z m 92.62109,0 v 10.70703 h 11.4414 v -10.70703 z m 87.3184,0 v 10.70703 h 11.58 v -10.70703 z"
       style="font-style:normal;font-variant:normal;font-weight:normal;font-stretch:normal;font-size:medium;line-height:0;font-family:monospace;-inkscape-font-specification:monospace;letter-spacing:6.57224941px;word-spacing:0px;fill:#000000;fill-opacity:1;stroke:none;stroke-width:6.97464657"
       inkscape:connector-curvature="0" />
    <path
       id="path1165"
       d="m 2.668571,186.47403 c -0.1338461,0.64008 -0.252535,1.282 -0.3224609,1.9296 h 3.0354735 c 0.084297,-0.66129 0.2065459,-1.30497 0.3700031,-1.9296 z m 59.604113,0 v 1.9296 h 3.063378 v -1.9296 z m 57.608366,0 v 1.9296 h 3.02721 v -1.9296 z m 35.46037,0 c 0.0702,0.32786 0.17444,0.60489 0.3421,0.78652 0.28834,0.31235 0.64908,0.46818 1.08158,0.46818 0.45654,0 0.81676,-0.15583 1.08107,-0.46818 0.16766,-0.18163 0.27192,-0.45866 0.3421,-0.78652 z m 15.33601,0 v 1.9296 h 3.06338 v -1.9296 z m 15.5453,0 c 0.0643,0.32786 0.15949,0.60489 0.31317,0.78652 0.28834,0.31235 0.6607,0.46818 1.11724,0.46818 0.45654,0 0.81728,-0.15583 1.08159,-0.46818 0.16765,-0.18163 0.27191,-0.45866 0.34209,-0.78652 z m 19.68459,0 c -0.13232,0.64581 -0.23445,1.28924 -0.29455,1.9296 h 3.04736 c 0.0758,-0.66797 0.19,-1.31132 0.34313,-1.9296 z m 55.15374,0 v 1.9296 h 3.0272 v -1.9296 z m 23.10299,0 v 1.9296 h 3.06388 v -1.9296 z"
       style="font-style:normal;font-variant:normal;font-weight:normal;font-stretch:normal;font-size:medium;line-height:0;font-family:monospace;-inkscape-font-specification:monospace;letter-spacing:6.57224941px;word-spacing:0px;fill:#000000;fill-opacity:1;stroke:none;stroke-width:1.84537518"
       inkscape:connector-curvature="0" />
    <path
       id="path1167"
       d="m 4.0679686,180.12403 c -0.1499831,0.25739 -0.3207237,0.48886 -0.4619874,0.75706 -0.4765617,0.91107 -0.8623472,1.83261 -1.1999267,2.76004 h 3.3935913 c 0.1132867,-0.22159 0.2037684,-0.45374 0.3291787,-0.66973 0.6110526,-1.07123 1.2415404,-1.99406 1.8810224,-2.84737 z m 27.8468784,0 c 0.101796,0.34132 0.210905,0.6803 0.236678,1.04542 0.02403,0.69682 0.168219,1.18908 0.43253,1.47742 0.28834,0.26432 0.636418,0.39636 1.044898,0.39636 0.432512,0 0.793247,-0.14419 1.081588,-0.43253 0.28834,-0.31237 0.432532,-0.84056 0.432532,-1.58543 v -0.90124 z m 29.299503,0 v 3.5171 h 3.063378 v -3.5171 z m 57.60836,0 v 3.5171 h 3.02721 v -3.5171 z m 35.36993,0 v 3.5171 h 3.02773 v -3.5171 z m 15.42645,0 v 3.5171 h 3.06338 v -3.5171 z m 15.46211,0 v 3.5171 h 3.02772 v -3.5171 z m 22.19761,0 c -0.14665,0.25727 -0.3135,0.489 -0.45166,0.75706 -0.47372,0.92593 -0.85325,1.84488 -1.18545,2.76004 h 3.34398 c 0.58108,-1.23417 1.25526,-2.40966 2.0376,-3.5171 z m 27.23555,0 c 0.47833,0.84114 0.76672,1.72678 0.82268,2.66702 0.0246,0.33143 0.0788,0.61273 0.15968,0.85008 h 2.70268 c 0.0997,-0.2885 0.16537,-0.62801 0.16537,-1.06609 v -2.45101 z m 25.48836,0 v 3.5171 h 3.0272 v -3.5171 z m 23.10299,0 v 3.5171 h 3.06388 v -3.5171 z"
       style="font-style:normal;font-variant:normal;font-weight:normal;font-stretch:normal;font-size:medium;line-height:0;font-family:monospace;-inkscape-font-specification:monospace;letter-spacing:6.57224941px;word-spacing:0px;fill:#000000;fill-opacity:1;stroke:none;stroke-width:1.84537518"
       inkscape:connector-curvature="0" />
    <path
       id="path1169"
       d="m 6.5794436,188.40363 c -0.076493,0.70842 -0.1328086,1.4194 -0.1328086,2.13682 v 0.69608 h 3.0277222 v -0.66042 c 0,-0.7459 0.050781,-1.46819 0.1405599,-2.17248 z m 59.9265754,0 v 2.8329 h 3.063378 v -2.8329 z m 57.608381,0 v 2.8329 h 3.02721 v -2.8329 z m 50.79639,0 v 2.8329 h 3.06337 v -2.8329 z m 34.93533,0 c -0.05,0.53304 -0.10594,1.0665 -0.10594,1.59577 v 1.23713 h 3.02773 v -0.8046 c 0,-0.70304 0.0512,-1.37307 0.12557,-2.0283 z m 55.44829,0 v 2.8329 h 26.16687 v -2.8329 h -3.06387 v 2.497 h -20.07579 v -2.497 z"
       style="font-style:normal;font-variant:normal;font-weight:normal;font-stretch:normal;font-size:medium;line-height:0;font-family:monospace;-inkscape-font-specification:monospace;letter-spacing:6.57224941px;word-spacing:0px;fill:#000000;fill-opacity:1;stroke:none;stroke-width:1.84537518"
       inkscape:connector-curvature="0" />
    <path
       id="path1171"
       d="m 13.883908,174.89076 c -1.802346,1.37956 -3.301561,3.13498 -4.5242725,5.23327 h 3.9418795 c 1.397364,-1.86461 2.857375,-3.24839 4.39043,-4.07262 0.915029,-0.49645 1.884934,-0.86533 2.886645,-1.16065 z m 16.268259,0 c 1.134237,0.31633 2.237136,0.72186 3.290236,1.26865 2.071952,1.06559 3.296468,2.39665 3.764114,3.96462 h 3.228226 v -5.23327 h -3.04891 c -0.0014,0.14555 -0.01499,0.13193 -0.01499,0.29559 -0.132517,-0.10507 -0.273894,-0.19466 -0.40876,-0.29559 z m 27.80657,0 c 0.316891,0.18217 0.740127,0.29559 1.338419,0.29559 h 7.208863 v 4.93768 h 3.063378 v -4.93768 h 7.208345 c 0.598133,0 1.021419,-0.11352 1.338421,-0.29559 z m 53.872693,0 c 0.0671,0.23543 0.17093,0.45858 0.35295,0.65577 0.31237,0.28834 0.64882,0.43253 1.00924,0.43253 0.21626,0 0.56434,-0.0718 1.0449,-0.216 l 2.77864,-0.8723 z m 12.28297,0 v 5.23327 h 3.02721 v -5.23327 z m 35.36994,0 v 5.23327 h 3.02772 v -4.93768 h 12.39873 v 4.93768 h 3.06337 v -4.93768 h 12.39873 v 4.93768 h 3.02772 v -5.23327 z m 57.51225,0 c -1.76171,1.38047 -3.22969,3.13441 -4.42609,5.23327 h 3.74448 c 0.3923,-0.55532 0.8035,-1.09866 1.24643,-1.62212 0.91307,-1.08128 2.13844,-1.99397 3.67626,-2.73885 0.72388,-0.36194 1.46988,-0.63716 2.22622,-0.8723 z m 15.3758,0 c 1.77199,0.52884 3.43853,1.35013 4.97644,2.53008 1.10381,0.83427 1.90873,1.73869 2.45722,2.70319 h 3.85041 v -5.23327 h -3.02772 v 1.41283 c -0.54304,-0.51407 -1.10741,-0.97621 -1.68207,-1.41283 z m 29.67623,0 c 0.32031,0.18219 0.75322,0.29559 1.37149,0.29559 h 1.8743 v 4.93768 h 3.02721 v -4.93768 h 4.07313 c 0.5983,0 1.02153,-0.11342 1.33842,-0.29559 z m 20.97341,0 c 0.31686,0.18217 0.74012,0.29559 1.33839,0.29559 h 4.03699 v 4.93768 h 3.06387 v -4.93768 h 1.87381 c 0.61825,0 1.05119,-0.1134 1.37149,-0.29559 z"
       style="font-style:normal;font-variant:normal;font-weight:normal;font-stretch:normal;font-size:medium;line-height:0;font-family:monospace;-inkscape-font-specification:monospace;letter-spacing:6.57224941px;word-spacing:0px;fill:#000000;fill-opacity:1;stroke:none;stroke-width:1.84537518"
       inkscape:connector-curvature="0" />
    <path
       id="path1173"
       d="m 7.8739381,207.11153 c 0.6950736,1.03202 1.4872046,2.01087 2.3915849,2.92799 0.434217,0.44033 0.893681,0.85439 1.376144,1.24488 h 6.106604 c -2.016155,-0.73777 -3.770344,-1.80752 -5.248258,-3.22771 -0.31406,-0.30179 -0.601165,-0.62183 -0.88315,-0.94516 z m 27.9094079,0 v 2.78381 c -1.261211,0.57986 -2.393593,1.01922 -3.462322,1.38906 h 6.526218 v -4.17287 z m 29.135172,0 v 4.17287 h 3.063378 v -4.17287 z m 23.175328,0 v 4.17287 h 3.06338 v -4.17287 z m 34.433044,0 v 4.17287 h 3.02721 v -4.17287 z m 50.79639,0 v 4.17287 h 3.06337 v -4.17287 z m 38.72683,0 c 0.13314,0.17559 0.21471,0.33454 0.35553,0.51263 1.32379,1.63076 2.43156,2.78 3.4184,3.66024 h 5.65702 c -1.93593,-0.82872 -3.73682,-2.08146 -5.39915,-3.76824 -0.12915,-0.132 -0.23925,-0.27079 -0.36329,-0.40463 z m 27.05985,0 c -1.5178,1.57253 -3.07769,2.80754 -4.68241,3.68453 -0.33646,0.18604 -0.69188,0.33295 -1.04334,0.48834 h 5.71283 c 0.89766,-0.72739 1.76306,-1.52348 2.57503,-2.43447 0.63333,-0.69225 1.04836,-1.26287 1.29346,-1.7384 z m 24.59694,0 v 4.17287 h 3.02721 v -4.17287 z m 23.103,0 v 4.17287 h 3.06387 v -4.17287 z"
       style="font-style:normal;font-variant:normal;font-weight:normal;font-stretch:normal;font-size:medium;line-height:0;font-family:monospace;-inkscape-font-specification:monospace;letter-spacing:6.57224941px;word-spacing:0px;fill:#000000;fill-opacity:1;stroke:none;stroke-width:1.84537518"
       inkscape:connector-curvature="0" />
    <path
       id="path1175"
       d="m 6.3499997,211.2844 c 1.4131078,1.14373 3.0320479,2.07506 4.8591333,2.79156 2.474918,0.96114 5.334465,1.44178 8.578287,1.44178 2.282691,0 4.564955,-0.3243 6.847645,-0.97307 2.306719,-0.64877 4.613788,-1.61005 6.920507,-2.88355 v -0.37672 h -6.526217 c -0.702694,0.24318 -1.396339,0.4764 -2.015898,0.6289 -1.56184,0.38446 -3.255706,0.57671 -5.081859,0.57671 -2.808477,0 -5.295416,-0.40803 -7.474996,-1.20561 z m 53.2768493,0 v 0.0165 h -7.208864 c -0.720849,0 -1.237406,0.14419 -1.549775,0.43253 -0.312368,0.26431 -0.468189,0.62453 -0.468189,1.08107 0,0.43251 0.155821,0.79273 0.468189,1.08107 0.312369,0.28834 0.828926,0.43253 1.549775,0.43253 h 33.447572 v -3.04374 h -3.06338 v 0.0165 h -20.11195 v -0.0165 z m 57.608351,0 v 0.0165 h -10.38024 c -0.72085,0 -1.23741,0.14419 -1.54978,0.43253 -0.31237,0.26431 -0.46871,0.62453 -0.46871,1.08107 0,0.43251 0.15634,0.79273 0.46871,1.08107 0.31237,0.28834 0.82893,0.43253 1.54978,0.43253 h 23.78769 c 0.72085,0 1.23792,-0.14419 1.55029,-0.43253 0.31237,-0.28834 0.46819,-0.64856 0.46819,-1.08107 0,-0.45654 -0.15582,-0.81676 -0.46819,-1.08107 -0.31237,-0.28834 -0.82944,-0.43253 -1.55029,-0.43253 h -10.38024 v -0.0165 z m 50.79638,0 v 0.0165 h -7.8574 c -0.72085,0 -1.23741,0.14419 -1.54978,0.43253 -0.31236,0.26431 -0.4687,0.62453 -0.4687,1.08107 0,0.43251 0.15634,0.79273 0.4687,1.08107 0.31237,0.28834 0.82893,0.43253 1.54978,0.43253 h 18.77818 c 0.72085,0 1.23741,-0.14419 1.54978,-0.43253 0.31237,-0.28834 0.4687,-0.64856 0.4687,-1.08107 0,-0.45654 -0.15633,-0.81676 -0.4687,-1.08107 -0.31237,-0.28834 -0.82893,-0.43253 -1.54978,-0.43253 h -7.8574 v -0.0165 z m 42.50077,0 c 0.2491,0.2222 0.53512,0.52691 0.76274,0.70125 1.12933,0.86502 2.55911,1.6219 4.28914,2.27066 2.25866,0.841 4.48123,1.26143 6.66781,1.26143 2.52298,0 5.00964,-0.55248 7.46053,-1.65779 1.455,-0.66393 2.81219,-1.53787 4.09277,-2.57555 h -5.71283 c -1.78198,0.78788 -3.74526,1.20561 -5.91281,1.20561 -2.12495,0 -4.12057,-0.40521 -5.99033,-1.20561 z m 47.88286,0 v 0.0165 h -3.42408 c -0.72085,0 -1.2374,0.14419 -1.54978,0.43253 -0.31236,0.26431 -0.4687,0.62453 -0.4687,1.08107 0,0.43251 0.15634,0.79273 0.4687,1.08107 0.31238,0.28834 0.82893,0.43253 1.54978,0.43253 h 10.52441 c 0.72086,0 1.23741,-0.14419 1.5498,-0.43253 0.31237,-0.28834 0.46818,-0.64856 0.46818,-1.08107 0,-0.45654 -0.15581,-0.81676 -0.46818,-1.08107 -0.31239,-0.28834 -0.82894,-0.43253 -1.5498,-0.43253 h -4.07313 v -0.0165 z m 23.10299,0 v 0.0165 h -4.03698 c -0.74486,0 -1.27307,0.14419 -1.58541,0.43253 -0.28837,0.26431 -0.43254,0.62453 -0.43254,1.08107 0,0.43251 0.15581,0.79273 0.46818,1.08107 0.31236,0.28834 0.82896,0.43253 1.54977,0.43253 h 10.52444 c 0.72085,0 1.23793,-0.14419 1.55029,-0.43253 0.31237,-0.28834 0.46818,-0.64856 0.46818,-1.08107 0,-0.45654 -0.15581,-0.81676 -0.46818,-1.08107 -0.31236,-0.28834 -0.82944,-0.43253 -1.55029,-0.43253 h -3.42358 v -0.0165 z"
       style="font-style:normal;font-variant:normal;font-weight:normal;font-stretch:normal;font-size:medium;line-height:0;font-family:monospace;-inkscape-font-specification:monospace;letter-spacing:6.57224941px;word-spacing:0px;fill:#000000;fill-opacity:1;stroke:none;stroke-width:1.84537518"
       inkscape:connector-curvature="0" />
    <path
       id="path1177"
       d="m 122.37909,168.48236 -13.43484,4.23334 -0.40515,0.12764 c -0.6007,0.21626 -0.99736,0.42066 -1.18959,0.61288 -0.24029,0.31237 -0.36018,0.64883 -0.36018,1.00924 0,0.15062 0.0404,0.28779 0.0796,0.4253 h 5.18573 l 6.92929,-2.17506 0.16795,-0.0527 v 0.0527 2.17506 h 3.02721 v -2.17506 z m -102.133298,2.7032 c -2.624493,0 -5.090506,0.52105 -7.407817,1.53014 -0.65292,0.28432 -1.298463,0.59208 -1.927014,0.95653 -0.629604,0.36506 -1.2182127,0.78121 -1.7895544,1.21853 h 6.6946814 c 1.470918,-0.43366 3.023784,-0.67748 4.681885,-0.67748 1.709988,0 3.334451,0.24317 4.891691,0.67748 h 6.80992 c -1.173736,-0.87838 -2.430539,-1.61017 -3.782197,-2.17506 -2.435604,-1.01791 -5.158267,-1.53014 -8.171595,-1.53014 z m 202.717328,0 c -2.51456,0 -4.88844,0.51944 -7.12876,1.53014 -0.64972,0.29311 -1.29161,0.61457 -1.91823,0.9927 -0.59156,0.35494 -1.14336,0.76022 -1.68207,1.18236 h 6.46731 c 1.40277,-0.43611 2.85547,-0.67748 4.36976,-0.67748 1.59402,0 3.09921,0.24786 4.53874,0.67748 h 6.57428 c -1.1664,-0.8862 -2.39971,-1.60794 -3.69642,-2.17506 -2.30476,-1.008 -4.80809,-1.53014 -7.52461,-1.53014 z m -188.805,0.97307 c -0.336397,-10e-6 -0.636408,0.0961 -0.900718,0.28835 -0.11593,0.0738 -0.153647,0.18104 -0.237197,0.26872 -0.106939,0.11221 -0.249383,0.20927 -0.303339,0.34416 -0.06207,0.20688 -0.08483,0.92932 -0.09354,1.8309 h 3.04891 v -0.71365 c 0,-0.66965 -0.137702,-1.14428 -0.38654,-1.46141 -0.01903,-0.0242 -0.02551,-0.0662 -0.04599,-0.0884 -0.288341,-0.31237 -0.649076,-0.46871 -1.081588,-0.4687 z m 20.376533,0 c -0.720849,0 -1.237406,0.14419 -1.549775,0.43253 -0.04156,0.0352 -0.05752,0.086 -0.09353,0.12454 -0.234712,0.25127 -0.374656,0.56072 -0.374656,0.95653 0,0.45654 0.155821,0.8289 0.468189,1.11724 0.05311,0.0449 0.146444,0.064 0.211357,0.10129 h 20.157426 c 0.06504,-0.0374 0.158695,-0.0563 0.211873,-0.10129 0.312367,-0.28834 0.468188,-0.6607 0.468188,-1.11724 0,-0.39581 -0.13994,-0.70526 -0.374655,-0.95653 -0.03601,-0.0386 -0.05198,-0.0894 -0.09353,-0.12454 -0.31237,-0.28834 -0.829442,-0.43253 -1.550294,-0.43253 z m 100.187157,0 v 0.55707 2.17506 h 33.91628 v -2.17506 -0.55707 z m 82.65801,0 c -0.45653,0 -0.82891,0.15633 -1.11725,0.4687 -0.0188,0.0222 -0.0249,0.0641 -0.0424,0.0884 -0.22805,0.31713 -0.35399,0.79182 -0.35399,1.46141 v 0.71365 h 3.02773 v -0.71365 c 0,-0.66965 -0.13771,-1.14428 -0.38654,-1.46141 -0.019,-0.0242 -0.0255,-0.0662 -0.046,-0.0884 -0.26431,-0.31237 -0.62504,-0.4687 -1.08158,-0.4687 z m 21.27777,0 c -0.74488,0 -1.2736,0.14419 -1.58595,0.43253 -0.0416,0.0352 -0.0575,0.086 -0.0935,0.12454 -0.23481,0.25127 -0.37517,0.56072 -0.37517,0.95653 0,0.45654 0.15634,0.8289 0.46871,1.11724 0.0531,0.0449 0.14886,0.064 0.21445,0.10129 h 11.68455 c 0.0649,-0.0373 0.15825,-0.0564 0.21138,-0.10129 0.31237,-0.28834 0.46818,-0.6607 0.46818,-1.11724 0,-0.39581 -0.13994,-0.70526 -0.37465,-0.95653 -0.036,-0.0386 -0.052,-0.0894 -0.0935,-0.12454 -0.31239,-0.28834 -0.82894,-0.43253 -1.5498,-0.43253 z m 20.94031,0 c -0.74486,0 -1.27307,0.14419 -1.58541,0.43253 -0.0384,0.0351 -0.0531,0.086 -0.0863,0.12454 -0.21677,0.25128 -0.34623,0.5607 -0.34623,0.95653 0,0.45654 0.15581,0.8289 0.46818,1.11724 0.0531,0.0449 0.14644,0.064 0.21137,0.10129 h 11.68456 c 0.0656,-0.0373 0.16134,-0.0564 0.21444,-0.10129 0.31237,-0.28834 0.46871,-0.6607 0.46871,-1.11724 0,-0.39581 -0.14036,-0.70526 -0.37518,-0.95653 -0.036,-0.0386 -0.052,-0.0894 -0.0935,-0.12454 -0.31236,-0.28834 -0.84105,-0.43253 -1.58594,-0.43253 z"
       style="font-style:normal;font-variant:normal;font-weight:normal;font-stretch:normal;font-size:medium;line-height:0;font-family:monospace;-inkscape-font-specification:monospace;letter-spacing:6.57224941px;word-spacing:0px;fill:#000000;fill-opacity:1;stroke:none;stroke-width:1.84537518"
       inkscape:connector-curvature="0" />
  </g>
  <g
     style="display:inline"
     transform="translate(9.4581259,-165.83653)"
     id="g1205"
     inkscape:groupmode="layer"
     inkscape:label="pieces_moved_pink" />
  <g
     inkscape:label="pieces_moved_blue"
     inkscape:groupmode="layer"
     id="g1210"
     style="display:inline"
     transform="translate(9.4581259,-165.83653)" />
  <g
     inkscape:label="pieces_moved_black"
     inkscape:groupmode="layer"
     id="g1216"
     style="display:inline"
     transform="translate(9.4581259,-165.83653)">
    <g
       id="g1305"
       transform="matrix(1,0,-0.57277643,1,109.97311,0)">
      <path
         inkscape:connector-curvature="0"
         id="path1181"
         d="m 124.49577,168.48236 -13.43484,4.23334 -0.40514,0.12764 c -0.6007,0.21626 -0.99736,0.42066 -1.18959,0.61288 -0.24029,0.31237 -0.36019,0.64883 -0.36019,1.00924 0,0.15062 0.0404,0.28779 0.0796,0.4253 h 4.7625 c 0.0671,0.23543 0.17093,0.45858 0.35295,0.65577 0.31237,0.28834 0.64882,0.43253 1.00924,0.43253 0.21626,0 0.56434,-0.0718 1.0449,-0.216 l 2.77864,-0.8723 h -4.7625 l 6.92929,-2.17506 0.16795,-0.0527 v 0.0527 2.17506 h 3.02721 v -2.17506 z m -102.13331,2.7032 c -2.624493,0 -5.090505,0.52105 -7.407817,1.53014 -0.652919,0.28432 -1.298463,0.59208 -1.927014,0.95653 -0.629603,0.36506 -1.218213,0.78121 -1.789555,1.21853 h 4.7625 c -1.802345,1.37956 -3.301559,3.13498 -4.524271,5.23327 h 3.941878 c 1.397364,-1.86461 2.857375,-3.24839 4.39043,-4.07262 0.915029,-0.49645 1.884934,-0.86533 2.886645,-1.16065 h -4.7625 c 1.470918,-0.43366 3.023784,-0.67748 4.681885,-0.67748 1.709988,0 3.334451,0.24317 4.891691,0.67748 h 4.762501 c 1.134237,0.31633 2.237136,0.72186 3.290236,1.26865 2.071952,1.0656 3.296468,2.39665 3.764114,3.96462 h 3.228226 v -5.23327 h -3.04891 c -0.0014,0.14555 -0.01499,0.13193 -0.01499,0.29559 -0.132517,-0.10507 -0.273894,-0.19466 -0.408761,-0.29559 h -1.289843 v -0.71365 c 0,-0.66965 -0.137703,-1.14428 -0.386541,-1.46141 -0.01903,-0.0242 -0.02551,-0.0662 -0.04599,-0.0884 -0.28834,-0.31237 -0.649076,-0.46871 -1.081588,-0.4687 -0.336396,-1e-5 -0.63641,0.0961 -0.900718,0.28835 -0.115933,0.0738 -0.153646,0.18104 -0.237196,0.26872 -0.10694,0.11221 -0.249383,0.20927 -0.30334,0.34416 -0.06207,0.20688 -0.08482,0.92932 -0.09353,1.8309 h -0.423746 c -1.173737,-0.87838 -2.43054,-1.61017 -3.782198,-2.17506 -2.435605,-1.01791 -5.158267,-1.53014 -8.171595,-1.53014 z m 202.71735,0 c -2.51456,0 -4.88845,0.51944 -7.12877,1.53014 -0.64971,0.29311 -1.2916,0.61457 -1.91823,0.9927 -0.59155,0.35494 -1.14335,0.76022 -1.68206,1.18236 h 4.7625 c -1.76171,1.38047 -3.22969,3.13441 -4.42609,5.23327 h 3.74448 c 0.3923,-0.55532 0.8035,-1.09866 1.24643,-1.62212 0.91307,-1.08128 2.13844,-1.99397 3.67626,-2.73885 0.72388,-0.36194 1.46988,-0.63716 2.22622,-0.8723 h -4.7625 c 1.40277,-0.43611 2.85547,-0.67748 4.36976,-0.67748 1.59402,0 3.09921,0.24786 4.53874,0.67748 h 4.7625 c 1.77199,0.52884 3.43853,1.35013 4.97644,2.53008 1.10381,0.83427 1.90873,1.73869 2.45722,2.70319 h 3.85041 v -5.23327 h -3.02772 v 1.41283 c -0.54304,-0.51407 -1.10741,-0.97621 -1.68207,-1.41283 h -0.0527 v -0.71365 c 0,-0.66965 -0.13771,-1.14428 -0.38654,-1.46141 -0.019,-0.0242 -0.0255,-0.0662 -0.046,-0.0884 -0.26431,-0.31237 -0.62505,-0.4687 -1.08159,-0.4687 -0.45653,0 -0.8289,0.15633 -1.11724,0.4687 -0.0188,0.0222 -0.0249,0.0641 -0.0424,0.0884 -0.22805,0.31713 -0.35398,0.79182 -0.35398,1.46141 v 0.71365 h -1.68207 c -1.1664,-0.8862 -2.39971,-1.60794 -3.69642,-2.17506 -2.30476,-1.008 -4.80808,-1.53014 -7.5246,-1.53014 z m -168.428488,0.97307 c -0.720847,0 -1.237406,0.14419 -1.549776,0.43253 -0.04156,0.0352 -0.05752,0.086 -0.09353,0.12454 -0.234712,0.25127 -0.374655,0.56072 -0.374655,0.95653 0,0.45654 0.155821,0.8289 0.468188,1.11724 0.05311,0.0449 0.146444,0.064 0.211357,0.10129 h 4.7625 c 0.316891,0.18217 0.740127,0.29559 1.338419,0.29559 h 7.208863 v 4.93768 h 3.063378 v -4.93768 h 7.208345 c 0.598133,0 1.021419,-0.11352 1.338421,-0.29559 h -4.762499 c 0.06504,-0.0374 0.158694,-0.0563 0.211873,-0.10129 0.312367,-0.28834 0.468188,-0.6607 0.468188,-1.11724 0,-0.39581 -0.139938,-0.70526 -0.374656,-0.95653 -0.03601,-0.0386 -0.05198,-0.0894 -0.09353,-0.12454 -0.31237,-0.28834 -0.829443,-0.43253 -1.550295,-0.43253 z m 100.187178,0 v 0.55707 2.17506 h 4.7625 v 5.23327 h 3.02772 v -4.93768 h 12.39873 v 4.93768 h 3.06337 v -4.93768 h 12.39873 v 4.93768 h 3.02772 v -5.23327 h -4.7625 v -2.17506 -0.55707 z m 103.93577,0 c -0.74488,0 -1.2736,0.14419 -1.58595,0.43253 -0.0416,0.0352 -0.0575,0.086 -0.0935,0.12454 -0.23481,0.25127 -0.37517,0.56072 -0.37517,0.95653 0,0.45654 0.15633,0.8289 0.4687,1.11724 0.0531,0.0449 0.14887,0.064 0.21446,0.10129 h 4.7625 c 0.32031,0.18219 0.75322,0.29559 1.37149,0.29559 h 1.8743 v 4.93768 h 3.02721 v -4.93768 h 4.07313 c 0.5983,0 1.02153,-0.11342 1.33842,-0.29559 h -4.7625 c 0.0649,-0.0373 0.15824,-0.0564 0.21137,-0.10129 0.31237,-0.28834 0.46818,-0.6607 0.46818,-1.11724 0,-0.39581 -0.13993,-0.70526 -0.37465,-0.95653 -0.036,-0.0386 -0.052,-0.0894 -0.0935,-0.12454 -0.31239,-0.28834 -0.82894,-0.43253 -1.54979,-0.43253 z m 20.94031,0 c -0.74485,0 -1.27307,0.14419 -1.58541,0.43253 -0.0384,0.0351 -0.0531,0.086 -0.0863,0.12454 -0.21677,0.25128 -0.34623,0.5607 -0.34623,0.95653 0,0.45654 0.15581,0.8289 0.46818,1.11724 0.0531,0.0449 0.14642,0.064 0.21138,0.10129 h 4.7625 c 0.31684,0.18217 0.74014,0.29559 1.33839,0.29559 h 4.03699 v 4.93768 h 3.06387 v -4.93768 h 1.87381 c 0.61825,0 1.05119,-0.1134 1.37149,-0.29559 h -4.7625 c 0.0656,-0.0373 0.16135,-0.0564 0.21445,-0.10129 0.31236,-0.28834 0.46871,-0.6607 0.46871,-1.11724 0,-0.39581 -0.14037,-0.70526 -0.37518,-0.95653 -0.036,-0.0386 -0.052,-0.0894 -0.0935,-0.12454 -0.31237,-0.28834 -0.84106,-0.43253 -1.58594,-0.43253 z m -155.48352,2.73213 v 5.23327 h 3.02721 v -5.23327 z M 6.1846355,180.12403 c -0.1499831,0.25739 -0.3207237,0.48886 -0.4619874,0.75706 -0.4765617,0.91107 -0.8623472,1.83261 -1.1999267,2.76004 h 2.1166667 c -0.3405056,0.93546 -0.5967267,1.8808 -0.795817,2.8329 H 4.7852378 c -0.1338462,0.64008 -0.2525351,1.282 -0.322461,1.9296 h 3.0354736 c 0.084297,-0.66129 0.2065459,-1.30497 0.3700031,-1.9296 h 1.0583334 c 0.2602507,-0.99451 0.6454414,-1.93127 1.1063921,-2.8329 H 7.9163127 c 0.1132867,-0.22159 0.2037686,-0.45374 0.3291787,-0.66973 0.6110528,-1.07123 1.2415399,-1.99406 1.8810226,-2.84737 z m 27.8468805,0 c 0.101796,0.34132 0.210905,0.68029 0.236678,1.04542 0.02403,0.69682 0.168219,1.18908 0.43253,1.47742 0.28834,0.26432 0.636418,0.39636 1.044898,0.39636 0.432511,0 0.793247,-0.14419 1.081587,-0.43253 0.28834,-0.31237 0.432533,-0.84056 0.432533,-1.58543 v -0.90124 z m 29.299503,0 v 3.5171 h 2.116666 v 2.8329 h -1.058333 v 1.9296 h 3.063378 v -1.9296 h 1.058333 v -2.8329 h -2.116667 v -3.5171 z m 57.608381,0 v 3.5171 h 2.11666 v 2.8329 h -1.05833 v 1.9296 h 3.02721 v -1.9296 h 1.05833 v -2.8329 h -2.11667 v -3.5171 z m 35.36993,0 v 3.5171 h 2.11667 v 2.03347 c 0,0.31177 0.0399,0.56341 0.0904,0.79943 h -1.05833 c 0.0702,0.32786 0.17444,0.60488 0.3421,0.78652 0.28834,0.31235 0.64908,0.46818 1.08158,0.46818 0.45654,0 0.81676,-0.15583 1.08107,-0.46818 0.16766,-0.18164 0.27192,-0.45866 0.3421,-0.78652 h 1.05833 c 0.0505,-0.23602 0.0904,-0.48766 0.0904,-0.79943 v -2.03347 h -2.11667 v -3.5171 z m 15.42645,0 v 3.5171 h 2.11667 v 2.8329 h -1.05834 v 1.9296 h 3.06338 v -1.9296 h 1.05833 v -2.8329 h -2.11666 v -3.5171 z m 15.4621,0 v 3.5171 h 2.11667 v 2.03347 c 0,0.31178 0.0369,0.56341 0.0832,0.79943 h -1.05834 c 0.0643,0.32786 0.15949,0.60488 0.31317,0.78652 0.28834,0.31235 0.6607,0.46818 1.11724,0.46818 0.45654,0 0.81728,-0.15583 1.08159,-0.46818 0.16765,-0.18164 0.27192,-0.45866 0.34209,-0.78652 h 1.05834 c 0.0505,-0.23602 0.0904,-0.48766 0.0904,-0.79943 v -2.03347 h -2.11666 v -3.5171 z m 22.19762,0 c -0.14665,0.25727 -0.3135,0.489 -0.45166,0.75706 -0.47372,0.92593 -0.85326,1.84488 -1.18545,2.76004 h 2.11666 c -0.34501,0.95045 -0.60034,1.89402 -0.79271,2.8329 H 208.024 c -0.13232,0.64581 -0.23445,1.28924 -0.29455,1.9296 h 3.04736 c 0.0758,-0.66797 0.19,-1.31132 0.34313,-1.9296 h 1.05833 c 0.14843,-0.59934 0.31948,-1.1842 0.54054,-1.73684 0.15341,-0.37371 0.32943,-0.73331 0.50022,-1.09606 h -2.11666 c 0.58108,-1.23417 1.25526,-2.40966 2.0376,-3.5171 z m 27.23554,0 c 0.47833,0.84114 0.76673,1.72678 0.82269,2.66702 0.0246,0.33143 0.0788,0.61273 0.15968,0.85008 h 2.11667 c 0.0774,0.22726 0.17922,0.41448 0.3085,0.55552 0.28835,0.28834 0.63694,0.43253 1.04542,0.43253 0.45654,0 0.81728,-0.15581 1.08159,-0.46819 0.11876,-0.12865 0.19731,-0.31781 0.26716,-0.51986 h -2.11666 c 0.0997,-0.2885 0.16536,-0.62801 0.16536,-1.06609 v -2.45101 z m 25.48837,0 v 3.5171 h 2.11666 v 2.8329 h -1.05833 v 1.9296 h 3.02721 v -1.9296 h 1.05833 v -2.8329 h -2.11667 v -3.5171 z m 23.10299,0 v 3.5171 h 2.11667 v 2.8329 h -1.05834 v 1.9296 h 3.06388 v -1.9296 h 1.05833 v -2.8329 h -2.11666 v -3.5171 z m -276.5262898,8.2796 c -0.076493,0.70842 -0.1328087,1.4194 -0.1328087,2.13682 v 0.69608 h 3.0277235 v -0.66042 c 0,-0.7459 0.05078,-1.46819 0.14056,-2.17248 z m 59.9265748,0 v 2.8329 h 3.063378 v -2.8329 z m 57.608375,0 v 2.8329 h 3.02721 v -2.8329 z m 50.79639,0 v 2.8329 h 3.06337 v -2.8329 z m 34.93533,0 c -0.05,0.53304 -0.10594,1.0665 -0.10594,1.59577 v 1.23713 h 3.02773 v -0.8046 c 0,-0.70304 0.0512,-1.37307 0.12557,-2.0283 z m 55.44829,0 v 2.8329 h -3.175 v 3.13366 h -2.11666 v 5.33301 h 2.11666 v 4.57543 h -1.05833 v 2.8329 h 2.64583 v 4.17287 h 3.02721 v -4.17287 h -2.64583 v -2.8329 h 1.05833 v -4.57543 h -2.11667 v -5.33301 h 2.11667 v -0.44183 h 20.07579 v 0.44183 h -2.11667 v 5.33301 h 2.11667 v 4.57543 h -1.05834 v 2.8329 h 2.64584 v 4.17287 h 3.06387 v -4.17287 h -2.64583 v -2.8329 h 1.05833 v -4.57543 h -2.11666 v -5.33301 h 2.11666 v -3.13366 h 3.175 v -2.8329 h -3.06387 v 2.497 h -20.07579 v -2.497 z m -262.0227684,2.8329 v 3.13366 H 3.271635 v 1.72082 c 0,1.30328 0.094973,2.48976 0.2418457,3.61219 h 2.1166667 c 0.2241055,1.71265 0.5976543,3.24119 1.1637531,4.53305 0.00649,0.0144 0.014664,0.028 0.021187,0.0424 h -1.058333 c 0.447463,0.98914 0.9807667,1.93127 1.588017,2.8329 h 2.6458328 c 0.6950737,1.03202 1.4872057,2.01087 2.3915867,2.92799 0.434217,0.44033 0.89368,0.85439 1.376143,1.24488 H 8.4666667 c 1.4131076,1.14373 3.0320503,2.07506 4.8591353,2.79156 2.474918,0.96114 5.334466,1.44178 8.578288,1.44178 2.282691,0 4.564954,-0.3243 6.847644,-0.97307 2.30672,-0.64877 4.613789,-1.61005 6.920508,-2.88355 v -0.37672 h 5.291667 v -4.17287 h -2.645834 v -2.8329 h 1.058334 v -4.57543 h -2.116667 v -1.01751 c 1.201415,0 1.922375,-0.0359 2.162659,-0.10801 0.240282,-0.0961 0.456314,-0.27622 0.648539,-0.54053 0.192225,-0.26431 0.288353,-0.5527 0.288353,-0.86506 0,-0.45656 -0.156337,-0.81676 -0.468704,-1.08108 -0.312369,-0.28834 -0.828929,-0.43253 -1.549775,-0.43253 l -14.560869,-0.0362 c -0.72085,0 -1.237924,0.14419 -1.550293,0.43253 -0.312367,0.28834 -0.468189,0.66069 -0.468189,1.11725 0,0.45653 0.155822,0.8289 0.468189,1.11724 0.312369,0.26431 0.829443,0.39636 1.550293,0.39636 h 10.415901 v 1.01751 h 2.116667 v 4.57543 h -1.058334 v 2.8329 h 2.645834 v 2.78381 c -1.261211,0.57986 -2.393593,1.01922 -3.462322,1.38906 h -5.291667 c -0.702693,0.24318 -1.396337,0.4764 -2.015896,0.6289 -1.56184,0.38446 -3.255708,0.57671 -5.081861,0.57671 -2.808477,0 -5.295415,-0.40803 -7.474996,-1.20561 h 5.291667 c -2.016155,-0.73777 -3.770344,-1.80752 -5.248258,-3.22771 -0.31406,-0.30179 -0.601166,-0.62183 -0.883151,-0.94516 H 11.087696 C 10.330035,206.24278 9.6780143,205.3029 9.1518966,204.27863 H 10.21023 C 9.4997773,202.89549 9.0014516,201.37 8.7131634,199.7032 H 6.5964967 C 6.399607,198.56484 6.2993572,197.36172 6.2993572,196.09101 v -1.72082 h 2.1166666 v -3.13366 z m 60.0593834,0 v 3.13366 h -2.116666 v 5.33301 h 2.116666 v 4.57543 h -1.058333 v 2.8329 h 2.645833 v 4.17287 h 3.063378 v -4.17287 H 67.45273 v -2.8329 h 1.058333 v -4.57543 h -2.116667 v -5.33301 h 2.116667 v -3.13366 z m 57.608375,0 v 3.13366 h -2.11666 v 5.33301 h 2.11666 v 4.57543 h -1.05833 v 2.8329 h 2.64583 v 4.17287 h 3.02721 v -4.17287 h -2.64583 v -2.8329 h 1.05833 v -4.57543 h -2.11667 v -5.33301 h 2.11667 v -3.13366 z m 50.79639,0 v 3.13366 h -2.11667 v 5.33301 h 2.11667 v 4.57543 h -1.05834 v 2.8329 h 2.64584 v 4.17287 h 3.06337 v -4.17287 h -2.64583 v -2.8329 h 1.05833 v -4.57543 h -2.11666 v -5.33301 h 2.11666 v -3.13366 z m 34.82939,0 v 3.13366 h -2.11666 v 1.79265 c 0,1.24642 0.14192,2.41345 0.35553,3.54036 h 2.11667 c 0.14464,0.76312 0.30316,1.51851 0.5457,2.22673 0.26021,0.74942 0.63633,1.53627 1.09037,2.3487 h -1.05833 c 0.50379,0.90145 1.16331,1.85366 1.90583,2.8329 h 2.64583 c 0.13314,0.17559 0.21471,0.33454 0.35553,0.51263 1.32379,1.63076 2.43156,2.78 3.4184,3.66024 h -5.29167 c 0.2491,0.2222 0.53513,0.52691 0.76275,0.70125 1.12933,0.86502 2.55911,1.6219 4.28914,2.27066 2.25866,0.841 4.48123,1.26143 6.66781,1.26143 2.52298,0 5.00964,-0.55248 7.46053,-1.65779 1.455,-0.66393 2.81219,-1.53787 4.09277,-2.57555 h 5.29167 c 0.89766,-0.72739 1.76306,-1.52348 2.57503,-2.43447 0.63333,-0.69225 1.04837,-1.26287 1.29346,-1.7384 h -2.64583 c 0.15477,-0.30026 0.25632,-0.57055 0.25632,-0.78445 0,-0.40848 -0.13205,-0.74492 -0.39636,-1.00924 -0.26432,-0.26431 -0.61239,-0.39636 -1.0449,-0.39636 -0.5046,0 -0.96146,0.25195 -1.36994,0.75655 -0.42951,0.51003 -0.86399,0.98104 -1.3007,1.4335 h 2.64584 c -1.5178,1.57253 -3.07769,2.80754 -4.68241,3.68453 -0.33646,0.18604 -0.69188,0.33295 -1.04334,0.48834 h -5.29167 c -1.78198,0.78788 -3.74527,1.20561 -5.91281,1.20561 -2.12496,0 -4.12058,-0.40521 -5.99034,-1.20561 h 5.29167 c -1.93593,-0.82872 -3.73683,-2.08146 -5.39916,-3.76824 -0.12915,-0.132 -0.23924,-0.27079 -0.36328,-0.40463 h -2.64583 c -0.83615,-0.90216 -1.55381,-1.84719 -2.15801,-2.8329 h 1.05833 c -0.8805,-1.43646 -1.51474,-2.96153 -1.90272,-4.57543 h -2.11667 c -0.30568,-1.27151 -0.47749,-2.59122 -0.47749,-3.97289 v -1.36012 h 2.11667 v -3.13366 z m -120.625715,6.0079 c -0.456539,0 -0.828906,0.15582 -1.117246,0.46819 -0.28834,0.31237 -0.432527,0.82893 -0.432533,1.54978 v 0.4408 h 2.116667 v 4.57543 H 87.56468 v 2.8329 h 2.645833 v 4.17287 h 3.06338 v -4.17287 H 90.62806 v -2.8329 h 1.058333 v -4.57543 h -2.116667 v -0.4408 c 0,-0.74488 -0.14419,-1.26144 -0.432532,-1.54978 -0.288335,-0.31237 -0.64856,-0.46819 -1.081069,-0.46819 z M 61.743519,211.2844 v 0.0165 h -7.208864 c -0.720847,0 -1.237406,0.14419 -1.549776,0.43253 -0.312367,0.26431 -0.468188,0.62453 -0.468188,1.08107 0,0.43251 0.155821,0.79273 0.468188,1.08107 0.31237,0.28834 0.828929,0.43253 1.549776,0.43253 h 33.447571 v -3.04374 h -3.06338 v 0.0165 h -20.11195 v -0.0165 z m 57.608381,0 v 0.0165 h -10.38025 c -0.72085,0 -1.2374,0.14419 -1.54977,0.43253 -0.31237,0.26431 -0.46871,0.62453 -0.46871,1.08107 0,0.43251 0.15634,0.79273 0.46871,1.08107 0.31237,0.28834 0.82892,0.43253 1.54977,0.43253 h 23.7877 c 0.72085,0 1.23792,-0.14419 1.55029,-0.43253 0.31237,-0.28834 0.46819,-0.64856 0.46819,-1.08107 0,-0.45654 -0.15582,-0.81676 -0.46819,-1.08107 -0.31237,-0.28834 -0.82944,-0.43253 -1.55029,-0.43253 H 122.3791 v -0.0165 z m 50.79638,0 v 0.0165 h -7.8574 c -0.72085,0 -1.23741,0.14419 -1.54978,0.43253 -0.31236,0.26431 -0.4687,0.62453 -0.4687,1.08107 0,0.43251 0.15634,0.79273 0.4687,1.08107 0.31237,0.28834 0.82893,0.43253 1.54978,0.43253 h 18.77818 c 0.72085,0 1.23741,-0.14419 1.54977,-0.43253 0.31237,-0.28834 0.46871,-0.64856 0.46871,-1.08107 0,-0.45654 -0.15634,-0.81676 -0.46871,-1.08107 -0.31236,-0.28834 -0.82892,-0.43253 -1.54977,-0.43253 h -7.8574 v -0.0165 z m 90.38363,0 v 0.0165 h -3.42408 c -0.72085,0 -1.2374,0.14419 -1.54978,0.43253 -0.31236,0.26431 -0.4687,0.62453 -0.4687,1.08107 0,0.43251 0.15634,0.79273 0.4687,1.08107 0.31238,0.28834 0.82893,0.43253 1.54978,0.43253 h 10.52441 c 0.72086,0 1.2374,-0.14419 1.5498,-0.43253 0.31236,-0.28834 0.46818,-0.64856 0.46818,-1.08107 0,-0.45654 -0.15582,-0.81676 -0.46818,-1.08107 -0.3124,-0.28834 -0.82894,-0.43253 -1.5498,-0.43253 h -4.07313 v -0.0165 z m 23.10299,0 v 0.0165 h -4.03699 c -0.74485,0 -1.27306,0.14419 -1.5854,0.43253 -0.28837,0.26431 -0.43255,0.62453 -0.43255,1.08107 0,0.43251 0.15582,0.79273 0.46818,1.08107 0.31237,0.28834 0.82897,0.43253 1.54977,0.43253 h 10.52444 c 0.72086,0 1.23793,-0.14419 1.5503,-0.43253 0.31237,-0.28834 0.46818,-0.64856 0.46818,-1.08107 0,-0.45654 -0.15581,-0.81676 -0.46818,-1.08107 -0.31237,-0.28834 -0.82944,-0.43253 -1.5503,-0.43253 h -3.42357 v -0.0165 z"
         style="font-style:normal;font-variant:normal;font-weight:normal;font-stretch:normal;font-size:medium;line-height:0;font-family:monospace;-inkscape-font-specification:monospace;letter-spacing:6.57224941px;word-spacing:0px;display:inline;fill:#ff2ad4;fill-opacity:1;stroke:none;stroke-width:1.84537518" />
      <path
         inkscape:connector-curvature="0"
         style="font-style:normal;font-variant:normal;font-weight:normal;font-stretch:normal;font-size:medium;line-height:0;font-family:monospace;-inkscape-font-specification:monospace;letter-spacing:6.57224941px;word-spacing:0px;display:inline;fill:#00ffff;fill-opacity:1;stroke:none;stroke-width:1.84537518"
         d="m 120.26242,168.48236 -13.43484,4.23334 -0.40515,0.12764 c -0.6007,0.21626 -0.99736,0.42066 -1.18959,0.61288 -0.24029,0.31237 -0.36018,0.64883 -0.36018,1.00924 0,0.15062 0.0404,0.28779 0.0796,0.4253 h 4.7625 c 0.0671,0.23543 0.17093,0.45858 0.35295,0.65577 0.31237,0.28834 0.64882,0.43253 1.00924,0.43253 0.21626,0 0.56434,-0.0718 1.0449,-0.216 l 2.77864,-0.8723 h -4.7625 l 6.92929,-2.17506 0.16795,-0.0527 v 0.0527 2.17506 h 3.02721 v -2.17506 z m -102.133295,2.7032 c -2.624493,0 -5.090506,0.52105 -7.407817,1.53014 -0.65292,0.28432 -1.2984624,0.59208 -1.9270131,0.95653 -0.6296038,0.36506 -1.218213,0.78121 -1.7895548,1.21853 h 4.7624989 c -1.8023457,1.37956 -3.3015591,3.13498 -4.5242705,5.23327 h 3.9418775 c 1.397364,-1.86461 2.857375,-3.24839 4.39043,-4.07262 0.915029,-0.49645 1.884934,-0.86533 2.886645,-1.16065 h -4.7625 c 1.470918,-0.43366 3.023784,-0.67748 4.681885,-0.67748 1.709988,0 3.334451,0.24317 4.891691,0.67748 h 4.7625 c 1.134237,0.31633 2.237137,0.72186 3.290237,1.26865 2.071952,1.0656 3.296467,2.39665 3.764113,3.96462 h 3.228226 v -5.23327 h -3.04891 c -0.0014,0.14555 -0.01499,0.13193 -0.01499,0.29559 -0.132516,-0.10507 -0.273894,-0.19466 -0.40876,-0.29559 h -1.289844 v -0.71365 c 0,-0.66965 -0.137702,-1.14428 -0.38654,-1.46141 -0.01903,-0.0242 -0.02551,-0.0662 -0.04599,-0.0884 -0.288341,-0.31237 -0.649076,-0.46871 -1.081588,-0.4687 -0.336397,-1e-5 -0.63641,0.0961 -0.900718,0.28835 -0.115933,0.0738 -0.153647,0.18104 -0.237197,0.26872 -0.106939,0.11221 -0.249383,0.20927 -0.303339,0.34416 -0.06207,0.20688 -0.08483,0.92932 -0.09354,1.8309 h -0.423746 c -1.173736,-0.87838 -2.430539,-1.61017 -3.782197,-2.17506 -2.435605,-1.01791 -5.158267,-1.53014 -8.171595,-1.53014 z m 202.717325,0 c -2.51456,0 -4.88844,0.51944 -7.12876,1.53014 -0.64972,0.29311 -1.29161,0.61457 -1.91823,0.9927 -0.59156,0.35494 -1.14336,0.76022 -1.68207,1.18236 h 4.7625 c -1.76171,1.38047 -3.22968,3.13441 -4.42608,5.23327 h 3.74447 c 0.3923,-0.55532 0.80351,-1.09866 1.24644,-1.62212 0.91307,-1.08128 2.13844,-1.99397 3.67626,-2.73885 0.72388,-0.36194 1.46988,-0.63716 2.22622,-0.8723 h -4.7625 c 1.40277,-0.43611 2.85547,-0.67748 4.36976,-0.67748 1.59402,0 3.09921,0.24786 4.53874,0.67748 h 4.7625 c 1.77199,0.52884 3.43853,1.35013 4.97644,2.53008 1.10381,0.83427 1.90872,1.73869 2.45722,2.70319 h 3.85041 v -5.23327 h -3.02773 v 1.41283 c -0.54304,-0.51407 -1.1074,-0.97621 -1.68206,-1.41283 h -0.0527 v -0.71365 c 0,-0.66965 -0.13771,-1.14428 -0.38654,-1.46141 -0.019,-0.0242 -0.0255,-0.0662 -0.046,-0.0884 -0.26431,-0.31237 -0.62504,-0.4687 -1.08158,-0.4687 -0.45653,0 -0.82891,0.15633 -1.11725,0.4687 -0.0188,0.0222 -0.0249,0.0641 -0.0424,0.0884 -0.22805,0.31713 -0.35399,0.79182 -0.35399,1.46141 v 0.71365 h -1.68206 c -1.1664,-0.8862 -2.39971,-1.60794 -3.69642,-2.17506 -2.30476,-1.008 -4.80809,-1.53014 -7.52461,-1.53014 z m -168.428464,0.97307 c -0.720846,0 -1.237406,0.14419 -1.549775,0.43253 -0.04156,0.0352 -0.05752,0.086 -0.09353,0.12454 -0.234712,0.25127 -0.374656,0.56072 -0.374656,0.95653 0,0.45654 0.155821,0.8289 0.468189,1.11724 0.05311,0.0449 0.146444,0.064 0.211357,0.10129 h 4.7625 c 0.316891,0.18217 0.740126,0.29559 1.338418,0.29559 h 7.208864 v 4.93768 h 3.063378 v -4.93768 h 7.208345 c 0.598133,0 1.021419,-0.11352 1.338421,-0.29559 h -4.7625 c 0.06504,-0.0374 0.158695,-0.0563 0.211873,-0.10129 0.312367,-0.28834 0.468188,-0.6607 0.468188,-1.11724 0,-0.39581 -0.139938,-0.70526 -0.374655,-0.95653 -0.03601,-0.0386 -0.05198,-0.0894 -0.09353,-0.12454 -0.31237,-0.28834 -0.829442,-0.43253 -1.550294,-0.43253 z m 100.187154,0 v 0.55707 2.17506 h 4.7625 v 5.23327 h 3.02773 v -4.93768 h 12.39872 v 4.93768 h 3.06338 v -4.93768 h 12.39873 v 4.93768 h 3.02772 v -5.23327 h -4.7625 v -2.17506 -0.55707 z m 103.93578,0 c -0.74488,0 -1.2736,0.14419 -1.58595,0.43253 -0.0416,0.0352 -0.0575,0.086 -0.0935,0.12454 -0.23481,0.25127 -0.37517,0.56072 -0.37517,0.95653 0,0.45654 0.15634,0.8289 0.46871,1.11724 0.0531,0.0449 0.14886,0.064 0.21445,0.10129 h 4.7625 c 0.32031,0.18219 0.75323,0.29559 1.3715,0.29559 h 1.8743 v 4.93768 h 3.0272 v -4.93768 h 4.07313 c 0.59831,0 1.02153,-0.11342 1.33842,-0.29559 h -4.7625 c 0.0649,-0.0373 0.15825,-0.0564 0.21138,-0.10129 0.31237,-0.28834 0.46818,-0.6607 0.46818,-1.11724 0,-0.39581 -0.13994,-0.70526 -0.37465,-0.95653 -0.036,-0.0386 -0.052,-0.0894 -0.0935,-0.12454 -0.31239,-0.28834 -0.82894,-0.43253 -1.5498,-0.43253 z m 20.94031,0 c -0.74486,0 -1.27307,0.14419 -1.58541,0.43253 -0.0384,0.0351 -0.0531,0.086 -0.0863,0.12454 -0.21677,0.25128 -0.34623,0.5607 -0.34623,0.95653 0,0.45654 0.15581,0.8289 0.46818,1.11724 0.0531,0.0449 0.14642,0.064 0.21137,0.10129 h 4.7625 c 0.31684,0.18217 0.74015,0.29559 1.3384,0.29559 h 4.03698 v 4.93768 h 3.06388 v -4.93768 h 1.8738 c 0.61826,0 1.05119,-0.1134 1.3715,-0.29559 h -4.7625 c 0.0656,-0.0373 0.16134,-0.0564 0.21444,-0.10129 0.31237,-0.28834 0.46871,-0.6607 0.46871,-1.11724 0,-0.39581 -0.14036,-0.70526 -0.37518,-0.95653 -0.036,-0.0386 -0.052,-0.0894 -0.0935,-0.12454 -0.31236,-0.28834 -0.84105,-0.43253 -1.58594,-0.43253 z m -155.48352,2.73213 v 5.23327 h 3.02721 v -5.23327 z M 1.9513019,180.12403 c -0.149983,0.25739 -0.3207236,0.48886 -0.4619873,0.75706 -0.4765617,0.91107 -0.86234717,1.83261 -1.19992664,2.76004 H 2.4060545 c -0.3405055,0.93546 -0.5967267,1.8808 -0.7958169,2.8329 H 0.55190433 c -0.13384617,0.64008 -0.25253517,1.282 -0.32246107,1.9296 H 3.2649169 c 0.084297,-0.66129 0.2065459,-1.30497 0.3700031,-1.9296 h 1.0583333 c 0.2602505,-0.99451 0.6454418,-1.93127 1.1063925,-2.8329 H 3.6829792 c 0.1132866,-0.22159 0.2037686,-0.45374 0.3291787,-0.66973 0.6110528,-1.07123 1.2415403,-1.99406 1.8810224,-2.84737 z m 27.8468791,0 c 0.101795,0.34132 0.210904,0.68029 0.236677,1.04542 0.02403,0.69682 0.16822,1.18908 0.432531,1.47742 0.28834,0.26432 0.636418,0.39636 1.044897,0.39636 0.432512,0 0.793248,-0.14419 1.081588,-0.43253 0.28834,-0.31237 0.432533,-0.84056 0.432533,-1.58543 v -0.90124 z m 29.299502,0 v 3.5171 h 2.116667 v 2.8329 h -1.058333 v 1.9296 h 3.063377 v -1.9296 h 1.058334 v -2.8329 h -2.116667 v -3.5171 z m 57.608357,0 v 3.5171 h 2.11667 v 2.8329 h -1.05833 v 1.9296 h 3.0272 v -1.9296 h 1.05834 v -2.8329 h -2.11667 v -3.5171 z m 35.36994,0 v 3.5171 h 2.11666 v 2.03347 c 0,0.31177 0.0399,0.56341 0.0904,0.79943 h -1.05834 c 0.0702,0.32786 0.17444,0.60488 0.3421,0.78652 0.28834,0.31235 0.64909,0.46818 1.08159,0.46818 0.45654,0 0.81676,-0.15583 1.08107,-0.46818 0.16766,-0.18164 0.27192,-0.45866 0.3421,-0.78652 h 1.05833 c 0.0505,-0.23602 0.0904,-0.48766 0.0904,-0.79943 v -2.03347 h -2.11667 v -3.5171 z m 15.42645,0 v 3.5171 h 2.11666 v 2.8329 h -1.05833 v 1.9296 h 3.06338 v -1.9296 h 1.05833 v -2.8329 h -2.11667 v -3.5171 z m 15.4621,0 v 3.5171 h 2.11667 v 2.03347 c 0,0.31178 0.0369,0.56341 0.0832,0.79943 h -1.05833 c 0.0643,0.32786 0.15948,0.60488 0.31316,0.78652 0.28834,0.31235 0.66071,0.46818 1.11725,0.46818 0.45654,0 0.81727,-0.15583 1.08158,-0.46818 0.16765,-0.18164 0.27192,-0.45866 0.3421,-0.78652 h 1.05833 c 0.0505,-0.23602 0.0904,-0.48766 0.0904,-0.79943 v -2.03347 h -2.11667 v -3.5171 z m 22.19761,0 c -0.14665,0.25727 -0.31349,0.489 -0.45165,0.75706 -0.47372,0.92593 -0.85326,1.84488 -1.18546,2.76004 h 2.11667 c -0.34501,0.95045 -0.60035,1.89402 -0.79272,2.8329 h -1.05833 c -0.13232,0.64581 -0.23446,1.28924 -0.29456,1.9296 h 3.04736 c 0.0758,-0.66797 0.19,-1.31132 0.34313,-1.9296 h 1.05834 c 0.14843,-0.59934 0.31948,-1.1842 0.54053,-1.73684 0.15342,-0.37371 0.32943,-0.73331 0.50023,-1.09606 h -2.11667 c 0.58109,-1.23417 1.25526,-2.40966 2.03761,-3.5171 z m 27.23555,0 c 0.47833,0.84114 0.76673,1.72678 0.82269,2.66702 0.0246,0.33143 0.0788,0.61273 0.15968,0.85008 h 2.11666 c 0.0774,0.22726 0.17923,0.41448 0.30851,0.55552 0.28834,0.28834 0.63694,0.43253 1.04542,0.43253 0.45654,0 0.81727,-0.15581 1.08158,-0.46819 0.11877,-0.12865 0.19732,-0.31781 0.26717,-0.51986 h -2.11667 c 0.0997,-0.2885 0.16537,-0.62801 0.16537,-1.06609 v -2.45101 z m 25.48836,0 v 3.5171 h 2.11667 v 2.8329 h -1.05833 v 1.9296 h 3.0272 v -1.9296 h 1.05833 v -2.8329 h -2.11666 v -3.5171 z m 23.103,0 v 3.5171 h 2.11666 v 2.8329 h -1.05833 v 1.9296 h 3.06388 v -1.9296 h 1.05833 v -2.8329 h -2.11667 v -3.5171 z m -276.5262734,8.2796 c -0.076493,0.70842 -0.1328086,1.4194 -0.1328086,2.13682 v 0.69608 h 3.0277223 v -0.66042 c 0,-0.7459 0.050781,-1.46819 0.1405599,-2.17248 z m 59.9265734,0 v 2.8329 h 3.063378 v -2.8329 z m 57.60836,0 v 2.8329 h 3.02721 v -2.8329 z m 50.79638,0 v 2.8329 h 3.06338 v -2.8329 z m 34.93534,0 c -0.05,0.53304 -0.10594,1.0665 -0.10594,1.59577 v 1.23713 h 3.02772 v -0.8046 c 0,-0.70304 0.0512,-1.37307 0.12558,-2.0283 z m 55.44829,0 v 2.8329 h -3.175 v 3.13366 h -2.11667 v 5.33301 h 2.11667 v 4.57543 h -1.05833 v 2.8329 h 2.64583 v 4.17287 h 3.0272 v -4.17287 h -2.64583 v -2.8329 h 1.05833 v -4.57543 h -2.11666 v -5.33301 h 2.11666 v -0.44183 h 20.07579 v 0.44183 h -2.11666 v 5.33301 h 2.11666 v 4.57543 h -1.05833 v 2.8329 h 2.64583 v 4.17287 h 3.06388 v -4.17287 h -2.64583 v -2.8329 h 1.05833 v -4.57543 h -2.11667 v -5.33301 h 2.11667 v -3.13366 h 3.175 v -2.8329 h -3.06388 v 2.497 h -20.07579 v -2.497 z m -262.022752,2.8329 v 3.13366 h -2.11666642 v 1.72082 c 0,1.30328 0.0949729,2.48976 0.2418457,3.61219 H 1.3968139 c 0.2241055,1.71265 0.5976543,3.24119 1.1637531,4.53305 0.00649,0.0144 0.014664,0.028 0.021187,0.0424 H 1.5234209 c 0.4474631,0.98914 0.9807668,1.93127 1.588017,2.8329 h 2.6458333 c 0.6950734,1.03202 1.4872049,2.01087 2.3915851,2.92799 0.4342166,0.44033 0.8936803,0.85439 1.376143,1.24488 H 4.2333332 c 1.4131078,1.14373 3.0320495,2.07506 4.8591344,2.79156 2.4749174,0.96114 5.3344654,1.44178 8.5782874,1.44178 2.282691,0 4.564954,-0.3243 6.847644,-0.97307 2.30672,-0.64877 4.613788,-1.61005 6.920508,-2.88355 v -0.37672 h 5.291666 v -4.17287 H 34.08474 v -2.8329 h 1.058333 v -4.57543 h -2.116666 v -1.01751 c 1.201414,0 1.922375,-0.0359 2.162659,-0.10801 0.240281,-0.0961 0.456314,-0.27622 0.648539,-0.54053 0.192225,-0.26431 0.288353,-0.5527 0.288353,-0.86506 0,-0.45656 -0.156337,-0.81676 -0.468704,-1.08108 -0.31237,-0.28834 -0.828929,-0.43253 -1.549776,-0.43253 l -14.560869,-0.0362 c -0.72085,0 -1.237924,0.14419 -1.550293,0.43253 -0.312367,0.28834 -0.468188,0.66069 -0.468188,1.11725 0,0.45653 0.155821,0.8289 0.468188,1.11724 0.312369,0.26431 0.829443,0.39636 1.550293,0.39636 h 10.415902 v 1.01751 h 2.116666 v 4.57543 h -1.058333 v 2.8329 h 2.645833 v 2.78381 c -1.26121,0.57986 -2.393593,1.01922 -3.462321,1.38906 h -5.291667 c -0.702693,0.24318 -1.396338,0.4764 -2.015897,0.6289 -1.56184,0.38446 -3.255707,0.57671 -5.08186,0.57671 -2.808477,0 -5.295416,-0.40803 -7.474996,-1.20561 h 5.291667 c -2.016155,-0.73777 -3.770345,-1.80752 -5.248259,-3.22771 -0.31406,-0.30179 -0.6011647,-0.62183 -0.8831497,-0.94516 H 6.8543618 c -0.7576603,-0.86875 -1.409681,-1.80863 -1.9357991,-2.8329 H 5.976896 C 5.266444,202.89549 4.768118,201.37 4.4798298,199.7032 H 2.3631632 c -0.1968897,-1.13836 -0.2971395,-2.34148 -0.2971395,-3.61219 v -1.72082 h 2.1166666 v -3.13366 z m 60.059382,0 v 3.13366 h -2.116667 v 5.33301 h 2.116667 v 4.57543 h -1.058333 v 2.8329 h 2.645833 v 4.17287 h 3.063378 v -4.17287 h -2.645834 v -2.8329 h 1.058334 v -4.57543 h -2.116667 v -5.33301 h 2.116667 v -3.13366 z m 57.60836,0 v 3.13366 h -2.11667 v 5.33301 h 2.11667 v 4.57543 h -1.05833 v 2.8329 h 2.64583 v 4.17287 h 3.02721 v -4.17287 h -2.64584 v -2.8329 h 1.05834 v -4.57543 h -2.11667 v -5.33301 h 2.11667 v -3.13366 z m 50.79638,0 v 3.13366 h -2.11666 v 5.33301 h 2.11666 v 4.57543 h -1.05833 v 2.8329 h 2.64583 v 4.17287 h 3.06338 v -4.17287 h -2.64583 v -2.8329 h 1.05833 v -4.57543 h -2.11667 v -5.33301 h 2.11667 v -3.13366 z m 34.8294,0 v 3.13366 h -2.11667 v 1.79265 c 0,1.24642 0.14193,2.41345 0.35554,3.54036 h 2.11666 c 0.14465,0.76312 0.30316,1.51851 0.54571,2.22673 0.2602,0.74942 0.63633,1.53627 1.09037,2.3487 h -1.05833 c 0.50379,0.90145 1.1633,1.85366 1.90582,2.8329 h 2.64584 c 0.13314,0.17559 0.21471,0.33454 0.35553,0.51263 1.32379,1.63076 2.43156,2.78 3.4184,3.66024 h -5.29167 c 0.2491,0.2222 0.53512,0.52691 0.76274,0.70125 1.12933,0.86502 2.55912,1.6219 4.28915,2.27066 2.25866,0.841 4.48123,1.26143 6.66781,1.26143 2.52298,0 5.00963,-0.55248 7.46052,-1.65779 1.455,-0.66393 2.8122,-1.53787 4.09278,-2.57555 h 5.29166 c 0.89766,-0.72739 1.76307,-1.52348 2.57504,-2.43447 0.63333,-0.69225 1.04836,-1.26287 1.29346,-1.7384 h -2.64583 c 0.15477,-0.30026 0.25631,-0.57055 0.25631,-0.78445 0,-0.40848 -0.13205,-0.74492 -0.39636,-1.00924 -0.26431,-0.26431 -0.61238,-0.39636 -1.04489,-0.39636 -0.5046,0 -0.96147,0.25195 -1.36994,0.75655 -0.42951,0.51003 -0.86399,0.98104 -1.3007,1.4335 h 2.64583 c -1.5178,1.57253 -3.07768,2.80754 -4.6824,3.68453 -0.33646,0.18604 -0.69189,0.33295 -1.04335,0.48834 h -5.29166 c -1.78198,0.78788 -3.74527,1.20561 -5.91282,1.20561 -2.12495,0 -4.12057,-0.40521 -5.99033,-1.20561 h 5.29167 c -1.93593,-0.82872 -3.73683,-2.08146 -5.39916,-3.76824 -0.12915,-0.132 -0.23924,-0.27079 -0.36328,-0.40463 h -2.64584 c -0.83615,-0.90216 -1.55381,-1.84719 -2.15801,-2.8329 h 1.05834 c -0.8805,-1.43646 -1.51474,-2.96153 -1.90273,-4.57543 h -2.11666 c -0.30568,-1.27151 -0.47749,-2.59122 -0.47749,-3.97289 v -1.36012 h 2.11666 v -3.13366 z m -120.625701,6.0079 c -0.456538,0 -0.828905,0.15582 -1.117245,0.46819 -0.28834,0.31237 -0.432528,0.82893 -0.432533,1.54978 v 0.4408 h 2.116667 v 4.57543 h -1.058334 v 2.8329 h 2.645834 v 4.17287 h 3.06338 v -4.17287 h -2.645834 v -2.8329 h 1.058334 v -4.57543 h -2.116667 v -0.4408 c 0,-0.74488 -0.14419,-1.26144 -0.432533,-1.54978 -0.288335,-0.31237 -0.64856,-0.46819 -1.081069,-0.46819 z M 57.510183,211.2844 v 0.0165 H 50.30132 c -0.720847,0 -1.237406,0.14419 -1.549776,0.43253 -0.312367,0.26431 -0.468188,0.62453 -0.468188,1.08107 0,0.43251 0.155821,0.79273 0.468188,1.08107 0.31237,0.28834 0.828929,0.43253 1.549776,0.43253 h 33.447571 v -3.04374 h -3.06338 v 0.0165 h -20.11195 v -0.0165 z m 57.608357,0 v 0.0165 H 104.7383 c -0.72085,0 -1.23741,0.14419 -1.54978,0.43253 -0.31237,0.26431 -0.4687,0.62453 -0.4687,1.08107 0,0.43251 0.15633,0.79273 0.4687,1.08107 0.31237,0.28834 0.82893,0.43253 1.54978,0.43253 h 23.78769 c 0.72085,0 1.23793,-0.14419 1.5503,-0.43253 0.31237,-0.28834 0.46818,-0.64856 0.46818,-1.08107 0,-0.45654 -0.15581,-0.81676 -0.46818,-1.08107 -0.31237,-0.28834 -0.82945,-0.43253 -1.5503,-0.43253 h -10.38024 v -0.0165 z m 50.79639,0 v 0.0165 h -7.85741 c -0.72085,0 -1.2374,0.14419 -1.54977,0.43253 -0.31236,0.26431 -0.46871,0.62453 -0.46871,1.08107 0,0.43251 0.15635,0.79273 0.46871,1.08107 0.31237,0.28834 0.82892,0.43253 1.54977,0.43253 h 18.77819 c 0.72085,0 1.2374,-0.14419 1.54977,-0.43253 0.31237,-0.28834 0.46871,-0.64856 0.46871,-1.08107 0,-0.45654 -0.15634,-0.81676 -0.46871,-1.08107 -0.31237,-0.28834 -0.82892,-0.43253 -1.54977,-0.43253 h -7.85741 v -0.0165 z m 90.38362,0 v 0.0165 h -3.42408 c -0.72085,0 -1.23739,0.14419 -1.54977,0.43253 -0.31236,0.26431 -0.46871,0.62453 -0.46871,1.08107 0,0.43251 0.15635,0.79273 0.46871,1.08107 0.31238,0.28834 0.82892,0.43253 1.54977,0.43253 h 10.52442 c 0.72085,0 1.2374,-0.14419 1.54979,-0.43253 0.31237,-0.28834 0.46818,-0.64856 0.46818,-1.08107 0,-0.45654 -0.15581,-0.81676 -0.46818,-1.08107 -0.31239,-0.28834 -0.82894,-0.43253 -1.54979,-0.43253 h -4.07313 v -0.0165 z m 23.103,0 v 0.0165 h -4.03699 c -0.74485,0 -1.27307,0.14419 -1.58541,0.43253 -0.28837,0.26431 -0.43254,0.62453 -0.43254,1.08107 0,0.43251 0.15581,0.79273 0.46818,1.08107 0.31237,0.28834 0.82897,0.43253 1.54977,0.43253 H 285.889 c 0.72086,0 1.23793,-0.14419 1.5503,-0.43253 0.31237,-0.28834 0.46818,-0.64856 0.46818,-1.08107 0,-0.45654 -0.15581,-0.81676 -0.46818,-1.08107 -0.31237,-0.28834 -0.82944,-0.43253 -1.5503,-0.43253 h -3.42358 v -0.0165 z"
         id="path1208" />
      <path
         transform="matrix(0.26458333,0,0,0.26458333,0,87)"
         inkscape:connector-curvature="0"
         style="font-style:normal;font-variant:normal;font-weight:normal;font-stretch:normal;font-size:medium;line-height:0;font-family:monospace;-inkscape-font-specification:monospace;letter-spacing:6.57224941px;word-spacing:0px;fill:#000000;fill-opacity:1;stroke:none;stroke-width:6.97464657"
         d="m 462.53516,307.96484 -50.77735,16 -1.53125,0.48243 c -2.27036,0.81736 -3.76955,1.5899 -4.49609,2.3164 -0.90818,1.18061 -1.36133,2.45228 -1.36133,3.81445 0,0.56928 0.15262,1.0877 0.30078,1.60743 h 18 c 0.25361,0.88981 0.64604,1.73323 1.33399,2.47851 1.18061,1.08979 2.45223,1.63477 3.81445,1.63477 0.81736,0 2.13293,-0.2714 3.94922,-0.81641 l 10.50195,-3.29687 h -18 l 26.18945,-8.22071 0.63477,-0.19922 v 0.19922 8.22071 h 11.44141 v -8.22071 z m -386.015629,10.2168 c -9.919343,0 -19.239706,1.96932 -27.998047,5.7832 -2.467729,1.0746 -4.907577,2.23779 -7.283203,3.61524 -2.379605,1.37975 -4.60427,2.9526 -6.763672,4.60547 h 18 C 45.662593,337.39963 39.996272,344.0343 35.375,351.96484 h 14.898438 c 5.281375,-7.04734 10.799526,-12.27737 16.59375,-15.39257 3.458377,-1.87635 7.124161,-3.27055 10.910156,-4.38672 h -18 c 5.559375,-1.63903 11.428474,-2.56055 17.695312,-2.56055 6.462947,0 12.60265,0.91906 18.488282,2.56055 h 18.000002 c 4.28688,1.19557 8.45532,2.72831 12.43554,4.79492 7.831,4.02743 12.45909,9.05819 14.22657,14.98437 h 12.20117 v -19.77929 h -11.52344 c -0.005,0.55011 -0.0566,0.49863 -0.0566,1.11718 -0.50085,-0.39711 -1.03519,-0.73572 -1.54492,-1.11718 h -4.875 v -2.69727 c 0,-2.53096 -0.52045,-4.32483 -1.46094,-5.52344 -0.0719,-0.0915 -0.0964,-0.25008 -0.17383,-0.33398 -1.08979,-1.18061 -2.4532,-1.77152 -4.08789,-1.77148 -1.27142,-4e-5 -2.40533,0.36322 -3.40429,1.08984 -0.43817,0.27893 -0.58071,0.68423 -0.89649,1.01562 -0.40418,0.4241 -0.94255,0.79096 -1.14648,1.30078 -0.2346,0.78191 -0.3206,3.51238 -0.35352,6.91993 h -1.60156 c -4.43617,-3.31986 -9.18629,-6.08569 -14.29492,-8.22071 -9.205436,-3.84722 -19.495813,-5.7832 -30.884769,-5.7832 z m 766.175779,0 c -9.50385,0 -18.47601,1.96324 -26.94336,5.7832 -2.45563,1.10782 -4.88167,2.3228 -7.25,3.75196 -2.23581,1.3415 -4.32135,2.87326 -6.35742,4.46875 h 18 c -6.65843,5.21752 -12.20669,11.84659 -16.72851,19.77929 h 14.15234 c 1.48271,-2.09884 3.03687,-4.15242 4.71094,-6.13086 3.45097,-4.08672 8.0823,-7.53626 13.89453,-10.35156 2.73592,-1.36796 5.55545,-2.40816 8.41406,-3.29687 h -18 c 5.30181,-1.64829 10.79232,-2.56055 16.51563,-2.56055 6.02464,0 11.71355,0.93679 17.15429,2.56055 h 18 c 6.69729,1.99876 12.99602,5.10284 18.8086,9.5625 4.17188,3.15314 7.21407,6.57144 9.28711,10.21679 h 14.55273 v -19.77929 h -11.44336 v 5.33984 c -2.05243,-1.94294 -4.18548,-3.68963 -6.35742,-5.33984 h -0.19922 v -2.69727 c 0,-2.53096 -0.52048,-4.32483 -1.46094,-5.52344 -0.0718,-0.0915 -0.0963,-0.25008 -0.17383,-0.33398 -0.99896,-1.18061 -2.36238,-1.77148 -4.08789,-1.77148 -1.72546,0 -3.13286,0.59087 -4.22265,1.77148 -0.0711,0.0839 -0.094,0.24214 -0.16016,0.33398 -0.86192,1.19861 -1.33789,2.99271 -1.33789,5.52344 v 2.69727 h -6.35742 c -4.40844,-3.34942 -9.06975,-6.07726 -13.9707,-8.22071 -8.71091,-3.80976 -18.1723,-5.7832 -28.43946,-5.7832 z m -636.58008,3.67774 c -2.72446,0 -4.67681,0.54497 -5.85742,1.63476 -0.15707,0.13304 -0.21741,0.32504 -0.35351,0.4707 -0.8871,0.94969 -1.41602,2.11926 -1.41602,3.61524 0,1.7255 0.58893,3.13287 1.76953,4.22265 0.20073,0.16971 0.55349,0.24188 0.79883,0.38282 h 18 c 1.1977,0.68851 2.79733,1.11718 5.05859,1.11718 h 27.2461 v 18.66211 h 11.57812 v -18.66211 h 27.24414 c 2.26066,0 3.86048,-0.42904 5.0586,-1.11718 h -18 c 0.24582,-0.14136 0.59979,-0.21277 0.80078,-0.38282 1.1806,-1.08978 1.76953,-2.49715 1.76953,-4.22265 0,-1.49598 -0.5289,-2.66555 -1.41602,-3.61524 -0.1361,-0.14589 -0.19647,-0.33789 -0.35351,-0.4707 -1.18061,-1.08979 -3.1349,-1.63476 -5.85938,-1.63476 z m 378.66016,0 v 2.10546 8.22071 h 18 v 19.77929 h 11.44336 v -18.66211 h 46.86133 v 18.66211 h 11.57812 v -18.66211 h 46.86133 v 18.66211 h 11.44336 v -19.77929 h -18 v -8.22071 -2.10546 z m 392.82813,0 c -2.8153,0 -4.81361,0.54497 -5.99414,1.63476 -0.15723,0.13304 -0.21746,0.32504 -0.35352,0.4707 -0.88747,0.94969 -1.41797,2.11926 -1.41797,3.61524 0,1.7255 0.59087,3.13287 1.77149,4.22265 0.20069,0.16971 0.56264,0.24188 0.81054,0.38282 h 18 c 1.21062,0.68859 2.84683,1.11718 5.1836,1.11718 h 7.08398 v 18.66211 h 11.4414 v -18.66211 h 15.3945 c 2.2613,0 3.8609,-0.42867 5.0586,-1.11718 h -18 c 0.2453,-0.14098 0.5981,-0.21315 0.7989,-0.38282 1.1806,-1.08978 1.7695,-2.49715 1.7695,-4.22265 0,-1.49598 -0.5289,-2.66555 -1.416,-3.61524 -0.1361,-0.14589 -0.1967,-0.33789 -0.3535,-0.4707 -1.1807,-1.08979 -3.133,-1.63476 -5.8575,-1.63476 z m 79.14448,0 c -2.8152,0 -4.8116,0.54497 -5.9921,1.63476 -0.1452,0.13266 -0.2007,0.32504 -0.3262,0.4707 -0.8193,0.94972 -1.3086,2.11919 -1.3086,3.61524 0,1.7255 0.5889,3.13287 1.7695,4.22265 0.2007,0.16971 0.5534,0.24188 0.7989,0.38282 h 18 c 1.1975,0.68851 2.7974,1.11718 5.0585,1.11718 h 15.2579 v 18.66211 h 11.58 v -18.66211 h 7.0821 c 2.3367,0 3.973,-0.42859 5.1836,-1.11718 h -18 c 0.2479,-0.14098 0.6098,-0.21315 0.8105,-0.38282 1.1806,-1.08978 1.7715,-2.49715 1.7715,-4.22265 0,-1.49598 -0.5305,-2.66555 -1.418,-3.61524 -0.136,-0.14589 -0.1966,-0.33789 -0.3535,-0.4707 -1.1806,-1.08979 -3.1788,-1.63476 -5.9941,-1.63476 z m -587.65425,10.32617 v 19.77929 h 11.44141 V 332.18555 Z M 15.375,351.96484 c -0.566865,0.97282 -1.212184,1.84766 -1.746094,2.86133 -1.801178,3.44342 -3.259265,6.9264 -4.535156,10.43164 h 8 c -1.28695,3.5356 -2.255345,7.10855 -3.007812,10.70703 h -4 c -0.5058755,2.4192 -0.9544636,4.84535 -1.2187505,7.29297 H 20.339844 c 0.318603,-2.49936 0.780646,-4.93216 1.398437,-7.29297 h 4 c 0.983624,-3.75878 2.439465,-7.29928 4.181641,-10.70703 h -8 c 0.42817,-0.8375 0.770149,-1.71491 1.24414,-2.53125 2.309491,-4.04874 4.692436,-7.53661 7.109376,-10.76172 z m 105.24805,0 c 0.38474,1.29003 0.79712,2.57119 0.89453,3.95118 0.0908,2.63365 0.63579,4.49419 1.63476,5.58398 1.08979,0.999 2.40536,1.49805 3.94922,1.49805 1.63469,0 2.9981,-0.54498 4.08789,-1.63477 1.08979,-1.18061 1.63477,-3.17693 1.63477,-5.99219 v -3.40625 z m 110.73828,0 v 13.29297 h 8 v 10.70703 h -4 v 7.29297 h 11.57812 v -7.29297 h 4 v -10.70703 h -8 v -13.29297 z m 217.73242,0 v 13.29297 h 8 v 10.70703 h -4 v 7.29297 h 11.44141 v -7.29297 h 4 v -10.70703 h -8 v -13.29297 z m 133.68164,0 v 13.29297 h 8 v 7.68555 c 0,1.17836 0.15086,2.12944 0.3418,3.02148 h -4 c 0.26532,1.23916 0.65929,2.28618 1.29297,2.97266 1.08979,1.18054 2.45324,1.76953 4.08789,1.76953 1.7255,0 3.08697,-0.58899 4.08593,-1.76953 0.63368,-0.68648 1.02773,-1.7335 1.29297,-2.97266 h 4 c 0.19094,-0.89204 0.3418,-1.84312 0.3418,-3.02148 v -7.68555 h -8 v -13.29297 z m 58.30469,0 v 13.29297 h 8 v 10.70703 h -4 v 7.29297 h 11.57812 v -7.29297 h 4 v -10.70703 h -8 v -13.29297 z m 58.43945,0 v 13.29297 h 8 v 7.68555 c 0,1.17838 0.13952,2.12943 0.31445,3.02148 h -4 c 0.24303,1.23916 0.60276,2.28618 1.1836,2.97266 1.08979,1.18054 2.49715,1.76953 4.22265,1.76953 1.72551,0 3.08893,-0.58899 4.08789,-1.76953 0.63364,-0.68648 1.02773,-1.7335 1.29297,-2.97266 h 4 c 0.19095,-0.89204 0.3418,-1.84312 0.3418,-3.02148 v -7.68555 h -8 v -13.29297 z m 83.89649,0 c -0.55427,0.97236 -1.18486,1.84819 -1.70704,2.86133 -1.79043,3.49958 -3.22491,6.97277 -4.48046,10.43164 h 8 c -1.30399,3.59227 -2.26903,7.1585 -2.9961,10.70703 h -4 c -0.50011,2.44086 -0.88613,4.87271 -1.11328,7.29297 h 11.51758 c 0.28649,-2.52461 0.71811,-4.95616 1.29687,-7.29297 h 4 c 0.56101,-2.26523 1.20748,-4.47571 2.04297,-6.56445 0.57984,-1.41243 1.2451,-2.77154 1.89063,-4.14258 h -8 c 2.19621,-4.66458 4.74429,-9.10737 7.70117,-13.29297 z m 102.9375,0 c 1.80786,3.17912 2.89787,6.52642 3.10937,10.08008 0.093,1.25265 0.29783,2.31582 0.60352,3.21289 h 8 c 0.29272,0.85894 0.67737,1.56655 1.16601,2.09961 1.08979,1.08979 2.40731,1.63477 3.95117,1.63477 1.72551,0 3.08893,-0.58888 4.08789,-1.76953 0.44888,-0.48627 0.74577,-1.20118 1.00977,-1.96485 h -8 c 0.37682,-1.09039 0.625,-2.37356 0.625,-4.02929 v -9.26368 z m 96.33398,0 v 13.29297 h 8 v 10.70703 h -4 v 7.29297 h 11.44141 v -7.29297 h 3.99999 v -10.70703 h -7.99999 v -13.29297 z m 87.3184,0 v 13.29297 h 8 v 10.70703 h -4 v 7.29297 h 11.58 v -7.29297 h 4 v -10.70703 h -8 V 351.96484 Z M 24.867188,383.25781 c -0.289108,2.6775 -0.501954,5.36467 -0.501954,8.07617 v 2.63086 h 11.44336 v -2.49609 c 0,-2.81915 0.191928,-5.54905 0.53125,-8.21094 z m 226.494142,0 v 10.70703 h 11.57812 v -10.70703 z m 217.73242,0 v 10.70703 h 11.44141 v -10.70703 z m 191.98633,0 v 10.70703 h 11.57812 v -10.70703 z m 132.03906,0 c -0.18898,2.01464 -0.40039,4.03086 -0.40039,6.03125 v 4.67578 h 11.44336 v -3.04101 c 0,-2.65716 0.19353,-5.18956 0.47461,-7.66602 z m 209.56836,0 v 10.70703 h -12 v 11.84375 h -8 v 20.15625 h 8 v 17.29297 h -4 v 10.70703 h 10 v 15.77149 h 11.4414 v -15.77149 h -9.99999 v -10.70703 h 3.99999 v -17.29297 h -7.99999 v -20.15625 h 7.99999 v -1.66992 h 75.877 v 1.66992 h -8 v 20.15625 h 8 v 17.29297 h -4 v 10.70703 h 10 v 15.77149 h 11.58 v -15.77149 h -10 v -10.70703 h 4 v -17.29297 h -8 v -20.15625 h 8 v -11.84375 h 12 v -10.70703 h -11.58 v 9.4375 h -75.877 v -9.4375 z M 12.365234,393.96484 v 11.84375 H 4.3652344 v 6.50391 c 0,4.92578 0.3589527,9.41009 0.9140625,13.65234 h 8.0000001 c 0.847013,6.47304 2.258851,12.25017 4.398437,17.13282 0.02453,0.0546 0.05542,0.10565 0.08008,0.16015 h -4 c 1.691199,3.73848 3.706835,7.2993 6.001954,10.70703 h 10 c 2.627049,3.90055 5.620932,7.60013 9.039062,11.06641 1.641135,1.66424 3.37769,3.22921 5.201172,4.70508 H 24 c 5.34088,4.32276 11.459715,7.84275 18.365234,10.55078 9.354021,3.63265 20.161761,5.44922 32.421875,5.44922 8.627494,0 17.25337,-1.22569 25.880861,-3.67774 8.71831,-2.45204 17.43794,-6.08521 26.15625,-10.89843 v -1.42383 h 20 v -15.77149 h -10 v -10.70703 h 4 v -17.29297 h -8 v -3.8457 c 4.54078,0 7.26567,-0.13566 8.17383,-0.4082 0.90815,-0.36322 1.72465,-1.044 2.45117,-2.04297 0.72652,-0.99897 1.08984,-2.08896 1.08984,-3.26953 0,-1.72558 -0.59088,-3.08694 -1.77148,-4.08594 -1.18061,-1.08979 -3.13296,-1.63477 -5.85742,-1.63477 l -55.033207,-0.13671 c -2.724472,0 -4.678768,0.54497 -5.859375,1.63476 -1.1806,1.08979 -1.769531,2.49708 -1.769531,4.22266 0,1.72547 0.588931,3.13286 1.769531,4.22265 1.180607,0.99897 3.134903,1.49805 5.859375,1.49805 h 39.367187 v 3.8457 h 8 v 17.29297 h -4 v 10.70703 h 10 v 10.52149 c -4.76678,2.19159 -9.04665,3.85218 -13.08594,5.25 h -20 c -2.655848,0.9191 -5.277497,1.80057 -7.619138,2.37695 -5.903017,1.45308 -12.305035,2.17969 -19.207031,2.17969 -10.614716,0 -20.01417,-1.54217 -28.251953,-4.55664 h 20 c -7.620113,-2.78842 -14.250121,-6.83157 -19.835937,-12.19922 -1.186999,-1.14062 -2.272121,-2.35023 -3.337891,-3.57227 h -10 c -2.863598,-3.28346 -5.327928,-6.83577 -7.316406,-10.70703 h 4 c -2.685173,-5.2276 -4.56861,-10.99324 -5.658203,-17.29297 h -8 c -0.74415,-4.30246 -1.123047,-8.84966 -1.123047,-13.65234 v -6.50391 h 8 v -11.84375 z m 226.996096,0 v 11.84375 h -8 v 20.15625 h 8 v 17.29297 h -4 v 10.70703 h 10 v 15.77149 h 11.57812 v -15.77149 h -10 v -10.70703 h 4 v -17.29297 h -8 v -20.15625 h 8 v -11.84375 z m 217.73242,0 v 11.84375 h -8 v 20.15625 h 8 v 17.29297 h -4 v 10.70703 h 10 v 15.77149 h 11.44141 v -15.77149 h -10 v -10.70703 h 4 v -17.29297 h -8 v -20.15625 h 8 v -11.84375 z m 191.98633,0 v 11.84375 h -8 v 20.15625 h 8 v 17.29297 h -4 v 10.70703 h 10 v 15.77149 h 11.57812 v -15.77149 h -10 v -10.70703 h 4 v -17.29297 h -8 v -20.15625 h 8 v -11.84375 z m 131.63867,0 v 11.84375 h -8 v 6.77539 c 0,4.71088 0.53641,9.12168 1.34375,13.38086 h 8 c 0.5467,2.88424 1.1458,5.73928 2.0625,8.41602 0.98346,2.83242 2.40504,5.80635 4.12109,8.87695 h -4 c 1.90409,3.40706 4.39675,7.00597 7.20313,10.70703 h 10 c 0.50321,0.66365 0.81152,1.26441 1.34375,1.9375 5.0033,6.16351 9.19013,10.5071 12.91992,13.83399 h -20 c 0.94148,0.83981 2.02252,1.99147 2.88281,2.65039 4.26834,3.26937 9.67224,6.13002 16.21094,8.58203 8.53667,3.17858 16.93693,4.76758 25.20117,4.76758 9.53567,0 18.93406,-2.08808 28.19727,-6.26563 5.49921,-2.50934 10.62876,-5.81243 15.46875,-9.73437 h 20 c 3.39273,-2.74919 6.66356,-5.75806 9.73242,-9.20117 2.39369,-2.61638 3.96231,-4.77304 4.88867,-6.57032 h -10 c 0.58496,-1.13484 0.96875,-2.1564 0.96875,-2.96484 0,-1.54386 -0.49908,-2.81545 -1.49805,-3.81445 -0.999,-0.99897 -2.31453,-1.49805 -3.94921,-1.49805 -1.90715,0 -3.63388,0.95223 -5.17774,2.85938 -1.62334,1.92767 -3.26546,3.70788 -4.91601,5.41796 h 10 c -5.73657,5.94342 -11.63219,10.61118 -17.69727,13.92578 -1.27166,0.70315 -2.61501,1.25841 -3.94336,1.84571 h -20 c -6.73504,2.97781 -14.15534,4.55664 -22.34765,4.55664 -8.03131,0 -15.57382,-1.53151 -22.64063,-4.55664 h 20 c -7.3169,-3.13217 -14.12343,-7.86696 -20.40625,-14.24219 -0.48813,-0.4989 -0.90423,-1.02344 -1.37305,-1.5293 h -10 c -3.16025,-3.40973 -5.87266,-6.98151 -8.15625,-10.70703 h 4 c -3.32786,-5.42912 -5.72501,-11.19316 -7.1914,-17.29297 h -8 c -1.15533,-4.8057 -1.80469,-9.79356 -1.80469,-15.01562 v -5.14063 h 8 v -11.84375 z m -455.9082,22.70704 c -1.7255,0 -3.13287,0.58892 -4.22266,1.76953 -1.08979,1.18061 -1.63475,3.13295 -1.63477,5.85742 v 1.66601 h 8 v 17.29297 h -4 v 10.70703 h 10 v 15.77149 h 11.57813 v -15.77149 h -10 v -10.70703 h 4 v -17.29297 h -8 v -1.66601 c 0,-2.8153 -0.54497,-4.76763 -1.63477,-5.85742 -1.08977,-1.18061 -2.45125,-1.76954 -4.08593,-1.76953 z m -99.44922,53.06445 v 0.0625 h -27.2461 c -2.72446,0 -4.67681,0.54497 -5.85742,1.63476 -1.1806,0.99897 -1.76953,2.36044 -1.76953,4.08594 0,1.63468 0.58893,2.99615 1.76953,4.08594 1.18061,1.08979 3.13296,1.63476 5.85742,1.63476 h 126.41602 v -11.5039 h -11.57813 v 0.0625 h -76.01367 v -0.0625 z m 217.73242,0 v 0.0625 h -39.23242 c -2.72447,0 -4.67681,0.54497 -5.85742,1.63476 -1.18061,0.99897 -1.77149,2.36044 -1.77149,4.08594 0,1.63468 0.59088,2.99615 1.77149,4.08594 1.18061,1.08979 3.13295,1.63476 5.85742,1.63476 h 89.90625 c 2.72447,0 4.67876,-0.54497 5.85937,-1.63476 1.18061,-1.08979 1.76953,-2.45126 1.76953,-4.08594 0,-1.7255 -0.58892,-3.08697 -1.76953,-4.08594 -1.18061,-1.08979 -3.1349,-1.63476 -5.85937,-1.63476 h -39.23242 v -0.0625 z m 191.98633,0 v 0.0625 h -29.69727 c -2.72447,0 -4.67681,0.54497 -5.85742,1.63476 -1.18057,0.99897 -1.77148,2.36044 -1.77148,4.08594 0,1.63468 0.59091,2.99615 1.77148,4.08594 1.18061,1.08979 3.13295,1.63476 5.85742,1.63476 h 70.97266 c 2.72447,0 4.67681,-0.54497 5.85742,-1.63476 1.18061,-1.08979 1.77148,-2.45126 1.77149,-4.08594 0,-1.7255 -0.59088,-3.08697 -1.77149,-4.08594 -1.18061,-1.08979 -3.13295,-1.63476 -5.85742,-1.63476 H 646.6582 v -0.0625 z m 341.60742,0 v 0.0625 h -12.94141 c -2.72447,0 -4.67677,0.54497 -5.85742,1.63476 -1.18057,0.99897 -1.77148,2.36044 -1.77148,4.08594 0,1.63468 0.59091,2.99615 1.77148,4.08594 1.18065,1.08979 3.13295,1.63476 5.85742,1.63476 h 39.77731 c 2.7245,0 4.6768,-0.54497 5.8575,-1.63476 1.1806,-1.08979 1.7695,-2.45126 1.7695,-4.08594 0,-1.7255 -0.5889,-3.08697 -1.7695,-4.08594 -1.1807,-1.08979 -3.133,-1.63476 -5.8575,-1.63476 h -15.39449 v -0.0625 z m 87.3184,0 v 0.0625 h -15.2579 c -2.8152,0 -4.8116,0.54497 -5.9921,1.63476 -1.0899,0.99897 -1.6348,2.36044 -1.6348,4.08594 0,1.63468 0.5889,2.99615 1.7695,4.08594 1.1806,1.08979 3.1331,1.63476 5.8574,1.63476 h 39.7774 c 2.7245,0 4.6788,-0.54497 5.8594,-1.63476 1.1806,-1.08979 1.7695,-2.45126 1.7695,-4.08594 0,-1.7255 -0.5889,-3.08697 -1.7695,-4.08594 -1.1806,-1.08979 -3.1349,-1.63476 -5.8594,-1.63476 h -12.9395 v -0.0625 z"
         id="path1214" />
    </g>
  </g>
  
  <style>
    @keyframes shift1 {
      from:{
    transform: translateX(0);
    }
    to {
      transform: translateX(0.4px);
    }
    }
    @keyframes shift2 {
       from:{
    transform: translateX(0);
    }
    to {
      transform: translateX(-0.4px);
    }
    }
    
    @keyframes flicker {
      0% {
      opacity:1;
    }
    99.5% {
    opacity:1;
    }
    99.9% {
    opacity:0;
    }
    100% {
    opacity:1;
    }
    }
    #path1181 {
    animation: shift1 0.05s linear alternate infinite,
    flicker 10s linear 0.05s infinite;
    }
    #path1208 {
    animation: shift2 0.05s linear alternate infinite,
    flicker 10s linear infinite;
    }</style>
</svg>
